G04*
G04 #@! TF.GenerationSoftware,Altium Limited,Altium Designer,22.7.1 (60)*
G04*
G04 Layer_Color=16711935*
%FSLAX44Y44*%
%MOMM*%
G71*
G04*
G04 #@! TF.SameCoordinates,93D02D30-53BF-4241-BF36-2AC50CD89F1B*
G04*
G04*
G04 #@! TF.FilePolarity,Negative*
G04*
G01*
G75*
%ADD60O,2.2000X1.8000*%
%ADD61R,2.2000X1.8000*%
%ADD62O,1.8000X2.2000*%
%ADD63R,1.8000X2.2000*%
%ADD64C,4.2000*%
G04:AMPARAMS|DCode=65|XSize=2.1mm|YSize=1.3mm|CornerRadius=0.41mm|HoleSize=0mm|Usage=FLASHONLY|Rotation=0.000|XOffset=0mm|YOffset=0mm|HoleType=Round|Shape=RoundedRectangle|*
%AMROUNDEDRECTD65*
21,1,2.1000,0.4800,0,0,0.0*
21,1,1.2800,1.3000,0,0,0.0*
1,1,0.8200,0.6400,-0.2400*
1,1,0.8200,-0.6400,-0.2400*
1,1,0.8200,-0.6400,0.2400*
1,1,0.8200,0.6400,0.2400*
%
%ADD65ROUNDEDRECTD65*%
%ADD66C,3.4000*%
%ADD67C,7.6000*%
D60*
X22860Y368300D02*
D03*
Y342900D02*
D03*
X48260Y368300D02*
D03*
X127000Y436880D02*
D03*
Y386080D02*
D03*
Y411480D02*
D03*
X624840Y419100D02*
D03*
Y444500D02*
D03*
X657860Y259080D02*
D03*
Y284480D02*
D03*
X632460Y233680D02*
D03*
Y259080D02*
D03*
Y284480D02*
D03*
D61*
X48260Y342900D02*
D03*
X127000Y462280D02*
D03*
X624840Y469900D02*
D03*
X657860Y233680D02*
D03*
D62*
X325120Y518160D02*
D03*
X350520D02*
D03*
X172720D02*
D03*
X198120D02*
D03*
X223520D02*
D03*
X248920D02*
D03*
X274320D02*
D03*
X299720D02*
D03*
X375920D02*
D03*
X574040Y25400D02*
D03*
X548640D02*
D03*
X624840D02*
D03*
X599440D02*
D03*
X523240D02*
D03*
X48260Y401320D02*
D03*
X73660D02*
D03*
X22860Y426720D02*
D03*
X48260D02*
D03*
X73660D02*
D03*
X249100Y137300D02*
D03*
X274500D02*
D03*
X299900D02*
D03*
X325300D02*
D03*
X350700D02*
D03*
X376100D02*
D03*
X401500D02*
D03*
X426900D02*
D03*
X452300D02*
D03*
X477700D02*
D03*
X503100D02*
D03*
X528500D02*
D03*
X553900D02*
D03*
X579300D02*
D03*
X249100Y213500D02*
D03*
X274500D02*
D03*
X299900D02*
D03*
X325300D02*
D03*
X350700D02*
D03*
X376100D02*
D03*
X401500D02*
D03*
X426900D02*
D03*
X452300D02*
D03*
X477700D02*
D03*
X503100D02*
D03*
X528500D02*
D03*
X553900D02*
D03*
X535940Y518160D02*
D03*
X561340D02*
D03*
X434340D02*
D03*
X459740D02*
D03*
X485140D02*
D03*
X510540D02*
D03*
X586740D02*
D03*
X132080Y96520D02*
D03*
X157480D02*
D03*
X312420Y25400D02*
D03*
X388620D02*
D03*
X414020D02*
D03*
X439420D02*
D03*
X464820D02*
D03*
X337820D02*
D03*
X363220D02*
D03*
D63*
X401320Y518160D02*
D03*
X497840Y25400D02*
D03*
X22860Y401320D02*
D03*
X579300Y213500D02*
D03*
X612140Y518160D02*
D03*
X106680Y96520D02*
D03*
X287020Y25400D02*
D03*
D64*
X25400Y35560D02*
D03*
X71120D02*
D03*
D65*
X17780Y292780D02*
D03*
Y226780D02*
D03*
D66*
X116840Y515620D02*
D03*
D67*
X134620Y38100D02*
D03*
X642620Y340360D02*
D03*
X645160Y81280D02*
D03*
M02*
