G04*
G04 #@! TF.GenerationSoftware,Altium Limited,Altium Designer,22.7.1 (60)*
G04*
G04 Layer_Color=8388736*
%FSLAX44Y44*%
%MOMM*%
G71*
G04*
G04 #@! TF.SameCoordinates,93D02D30-53BF-4241-BF36-2AC50CD89F1B*
G04*
G04*
G04 #@! TF.FilePolarity,Negative*
G04*
G01*
G75*
%ADD37R,0.7588X0.8858*%
%ADD38R,0.8858X0.7588*%
%ADD39R,1.4500X0.5000*%
%ADD40R,1.6000X1.8000*%
%ADD41R,2.1000X2.1000*%
%ADD42R,0.9000X1.5000*%
%ADD43R,0.7500X1.2000*%
%ADD44R,1.5000X0.9000*%
%ADD45R,1.1000X1.5000*%
%ADD46R,0.8000X1.1000*%
%ADD47R,1.6200X0.6700*%
%ADD48R,0.6700X1.6200*%
%ADD49R,1.5000X1.1000*%
%ADD50R,1.0000X1.0000*%
%ADD51R,1.0000X1.0000*%
%ADD52R,1.6000X1.8000*%
%ADD53R,2.2000X2.7000*%
%ADD54R,2.7000X2.2000*%
%ADD55R,1.2000X0.7500*%
%ADD56R,3.7000X2.4000*%
%ADD57R,0.8000X2.4000*%
%ADD58R,2.9000X2.2000*%
%ADD59R,1.8000X3.2000*%
%ADD60O,2.2000X1.8000*%
%ADD61R,2.2000X1.8000*%
%ADD62O,1.8000X2.2000*%
%ADD63R,1.8000X2.2000*%
%ADD64C,4.2000*%
G04:AMPARAMS|DCode=65|XSize=2.1mm|YSize=1.3mm|CornerRadius=0.41mm|HoleSize=0mm|Usage=FLASHONLY|Rotation=0.000|XOffset=0mm|YOffset=0mm|HoleType=Round|Shape=RoundedRectangle|*
%AMROUNDEDRECTD65*
21,1,2.1000,0.4800,0,0,0.0*
21,1,1.2800,1.3000,0,0,0.0*
1,1,0.8200,0.6400,-0.2400*
1,1,0.8200,-0.6400,-0.2400*
1,1,0.8200,-0.6400,0.2400*
1,1,0.8200,0.6400,0.2400*
%
%ADD65ROUNDEDRECTD65*%
%ADD66C,3.4000*%
%ADD67C,7.6000*%
D37*
X94488Y172720D02*
D03*
X118872D02*
D03*
D38*
X180340Y466852D02*
D03*
Y442468D02*
D03*
D39*
X44530Y272780D02*
D03*
Y266280D02*
D03*
Y259780D02*
D03*
Y253280D02*
D03*
Y246780D02*
D03*
D40*
X42280Y291780D02*
D03*
Y227780D02*
D03*
D41*
X17780Y271780D02*
D03*
Y247780D02*
D03*
D42*
X571750Y288500D02*
D03*
X552750D02*
D03*
X259740Y393700D02*
D03*
X278740D02*
D03*
X155600Y424180D02*
D03*
X174600D02*
D03*
X116180Y149860D02*
D03*
X97180D02*
D03*
X113640Y193040D02*
D03*
X94640D02*
D03*
X155600Y403860D02*
D03*
X174600D02*
D03*
X241960Y71120D02*
D03*
X260960D02*
D03*
X603860Y457200D02*
D03*
X584860D02*
D03*
X574700Y335280D02*
D03*
X593700D02*
D03*
X368960Y251460D02*
D03*
X387960D02*
D03*
X516280Y464820D02*
D03*
X535280D02*
D03*
X551840D02*
D03*
X570840D02*
D03*
X206400Y271780D02*
D03*
X225400D02*
D03*
X155600Y383540D02*
D03*
X174600D02*
D03*
X93320Y454660D02*
D03*
X74320D02*
D03*
X16560Y205740D02*
D03*
X35560D02*
D03*
X71780Y256540D02*
D03*
X90780D02*
D03*
X71780Y236220D02*
D03*
X90780D02*
D03*
X130200Y190500D02*
D03*
X149200D02*
D03*
D43*
X583750Y241500D02*
D03*
X574250D02*
D03*
X564750D02*
D03*
X583750Y268500D02*
D03*
X564750D02*
D03*
X215240Y443700D02*
D03*
X205740D02*
D03*
X196240D02*
D03*
X215240Y470700D02*
D03*
X196240D02*
D03*
X571500Y398780D02*
D03*
X581000D02*
D03*
X590500D02*
D03*
X571500Y371780D02*
D03*
X590500D02*
D03*
D44*
X619760Y200660D02*
D03*
Y181660D02*
D03*
X160020Y464160D02*
D03*
Y445160D02*
D03*
X604520Y241960D02*
D03*
Y260960D02*
D03*
X330200Y95860D02*
D03*
Y76860D02*
D03*
X269240Y433680D02*
D03*
Y414680D02*
D03*
Y466700D02*
D03*
Y447700D02*
D03*
X284480Y95860D02*
D03*
Y76860D02*
D03*
X424180Y318160D02*
D03*
Y337160D02*
D03*
X199000Y242750D02*
D03*
Y223750D02*
D03*
D45*
X226720Y393700D02*
D03*
X245720D02*
D03*
X165000Y178250D02*
D03*
X184000D02*
D03*
X100940Y210820D02*
D03*
X81940D02*
D03*
X210820Y391160D02*
D03*
X191820D02*
D03*
X608280Y287020D02*
D03*
X589280D02*
D03*
X118720Y127000D02*
D03*
X99720D02*
D03*
X64820Y68580D02*
D03*
X83820D02*
D03*
X26060D02*
D03*
X45060D02*
D03*
X364440Y314960D02*
D03*
X345440D02*
D03*
X352400Y254000D02*
D03*
X333400D02*
D03*
X351180Y78740D02*
D03*
X370180D02*
D03*
X405740Y314960D02*
D03*
X386740D02*
D03*
X241960Y27940D02*
D03*
X260960D02*
D03*
X260960Y50800D02*
D03*
X241960D02*
D03*
X351180Y96520D02*
D03*
X370180D02*
D03*
X386740Y335280D02*
D03*
X405740D02*
D03*
X227280Y365760D02*
D03*
X208280D02*
D03*
X564540Y434340D02*
D03*
X583540D02*
D03*
X160250Y242000D02*
D03*
X179250D02*
D03*
X139040Y228600D02*
D03*
X120040D02*
D03*
X139040Y210820D02*
D03*
X120040D02*
D03*
X161250Y218500D02*
D03*
X180250D02*
D03*
X164250Y197500D02*
D03*
X183250D02*
D03*
D46*
X78620Y274320D02*
D03*
X63620D02*
D03*
X20440Y309880D02*
D03*
X35440D02*
D03*
D47*
X92620Y284420D02*
D03*
Y292420D02*
D03*
Y300420D02*
D03*
Y308420D02*
D03*
Y316420D02*
D03*
Y324420D02*
D03*
Y332420D02*
D03*
Y340420D02*
D03*
X176620D02*
D03*
Y332420D02*
D03*
Y324420D02*
D03*
Y316420D02*
D03*
Y308420D02*
D03*
Y300420D02*
D03*
Y292420D02*
D03*
Y284420D02*
D03*
D48*
X106620Y270420D02*
D03*
Y354420D02*
D03*
X114620Y270420D02*
D03*
Y354420D02*
D03*
X122620Y270420D02*
D03*
Y354420D02*
D03*
X130620Y270420D02*
D03*
Y354420D02*
D03*
X138620Y270420D02*
D03*
Y354420D02*
D03*
X146620Y270420D02*
D03*
Y354420D02*
D03*
X154620Y270420D02*
D03*
Y354420D02*
D03*
X162620Y270420D02*
D03*
Y354420D02*
D03*
D49*
X307340Y95860D02*
D03*
Y76860D02*
D03*
X426720Y258420D02*
D03*
Y239420D02*
D03*
X195580Y409600D02*
D03*
Y428600D02*
D03*
X622300Y145440D02*
D03*
Y164440D02*
D03*
X424180Y285140D02*
D03*
Y304140D02*
D03*
X388620Y76860D02*
D03*
Y95860D02*
D03*
X406400Y258420D02*
D03*
Y239420D02*
D03*
X408940Y76860D02*
D03*
Y95860D02*
D03*
X332740Y277520D02*
D03*
Y296520D02*
D03*
X246380Y365100D02*
D03*
Y346100D02*
D03*
D50*
X601980Y435100D02*
D03*
Y419100D02*
D03*
X248920Y415800D02*
D03*
Y431800D02*
D03*
Y448820D02*
D03*
Y464820D02*
D03*
D51*
X573280Y355600D02*
D03*
X589280D02*
D03*
D52*
X55640Y526220D02*
D03*
X25640D02*
D03*
X55640Y454220D02*
D03*
X25640D02*
D03*
X642860Y134180D02*
D03*
X672860D02*
D03*
X642860Y206180D02*
D03*
X672860D02*
D03*
D53*
X358460Y284480D02*
D03*
X398460D02*
D03*
D54*
X215900Y300040D02*
D03*
Y340040D02*
D03*
D55*
X50000Y173380D02*
D03*
Y182880D02*
D03*
Y192380D02*
D03*
X77000Y173380D02*
D03*
Y192380D02*
D03*
D56*
X53340Y152920D02*
D03*
D57*
X78740Y90920D02*
D03*
X66040D02*
D03*
X53340D02*
D03*
X40640D02*
D03*
X27940D02*
D03*
D58*
X142240Y160780D02*
D03*
Y128780D02*
D03*
D59*
X202000Y23000D02*
D03*
Y64000D02*
D03*
X200750Y100000D02*
D03*
Y141000D02*
D03*
D60*
X22860Y368300D02*
D03*
Y342900D02*
D03*
X48260Y368300D02*
D03*
X127000Y436880D02*
D03*
Y386080D02*
D03*
Y411480D02*
D03*
X624840Y419100D02*
D03*
Y444500D02*
D03*
X657860Y259080D02*
D03*
Y284480D02*
D03*
X632460Y233680D02*
D03*
Y259080D02*
D03*
Y284480D02*
D03*
D61*
X48260Y342900D02*
D03*
X127000Y462280D02*
D03*
X624840Y469900D02*
D03*
X657860Y233680D02*
D03*
D62*
X325120Y518160D02*
D03*
X350520D02*
D03*
X172720D02*
D03*
X198120D02*
D03*
X223520D02*
D03*
X248920D02*
D03*
X274320D02*
D03*
X299720D02*
D03*
X375920D02*
D03*
X574040Y25400D02*
D03*
X548640D02*
D03*
X624840D02*
D03*
X599440D02*
D03*
X523240D02*
D03*
X48260Y401320D02*
D03*
X73660D02*
D03*
X22860Y426720D02*
D03*
X48260D02*
D03*
X73660D02*
D03*
X249100Y137300D02*
D03*
X274500D02*
D03*
X299900D02*
D03*
X325300D02*
D03*
X350700D02*
D03*
X376100D02*
D03*
X401500D02*
D03*
X426900D02*
D03*
X452300D02*
D03*
X477700D02*
D03*
X503100D02*
D03*
X528500D02*
D03*
X553900D02*
D03*
X579300D02*
D03*
X249100Y213500D02*
D03*
X274500D02*
D03*
X299900D02*
D03*
X325300D02*
D03*
X350700D02*
D03*
X376100D02*
D03*
X401500D02*
D03*
X426900D02*
D03*
X452300D02*
D03*
X477700D02*
D03*
X503100D02*
D03*
X528500D02*
D03*
X553900D02*
D03*
X535940Y518160D02*
D03*
X561340D02*
D03*
X434340D02*
D03*
X459740D02*
D03*
X485140D02*
D03*
X510540D02*
D03*
X586740D02*
D03*
X132080Y96520D02*
D03*
X157480D02*
D03*
X312420Y25400D02*
D03*
X388620D02*
D03*
X414020D02*
D03*
X439420D02*
D03*
X464820D02*
D03*
X337820D02*
D03*
X363220D02*
D03*
D63*
X401320Y518160D02*
D03*
X497840Y25400D02*
D03*
X22860Y401320D02*
D03*
X579300Y213500D02*
D03*
X612140Y518160D02*
D03*
X106680Y96520D02*
D03*
X287020Y25400D02*
D03*
D64*
X25400Y35560D02*
D03*
X71120D02*
D03*
D65*
X17780Y292780D02*
D03*
Y226780D02*
D03*
D66*
X116840Y515620D02*
D03*
D67*
X134620Y38100D02*
D03*
X642620Y340360D02*
D03*
X645160Y81280D02*
D03*
M02*
