G04*
G04 #@! TF.GenerationSoftware,Altium Limited,Altium Designer,22.7.1 (60)*
G04*
G04 Layer_Color=255*
%FSLAX44Y44*%
%MOMM*%
G71*
G04*
G04 #@! TF.SameCoordinates,93D02D30-53BF-4241-BF36-2AC50CD89F1B*
G04*
G04*
G04 #@! TF.FilePolarity,Positive*
G04*
G01*
G75*
%ADD14R,0.5588X0.6858*%
%ADD15R,0.6858X0.5588*%
%ADD16R,1.3500X0.4000*%
%ADD17R,1.4000X1.6000*%
%ADD18R,1.9000X1.9000*%
%ADD19R,0.7000X1.3000*%
%ADD20R,0.5500X1.0000*%
%ADD21R,1.3000X0.7000*%
%ADD22R,0.9000X1.3000*%
%ADD23R,0.6000X0.9000*%
%ADD24R,1.5000X0.5500*%
%ADD25R,0.5500X1.5000*%
%ADD26R,1.3000X0.9000*%
%ADD27R,0.8000X0.8000*%
%ADD28R,0.8000X0.8000*%
%ADD29R,1.4000X1.6000*%
%ADD30R,2.0000X2.5000*%
%ADD31R,2.5000X2.0000*%
%ADD32R,1.0000X0.5500*%
%ADD33R,3.5000X2.2000*%
%ADD34R,0.6000X2.2000*%
%ADD35R,2.7000X2.0000*%
%ADD36R,1.6000X3.0000*%
D14*
X94488Y172720D02*
D03*
X118872D02*
D03*
D15*
X180340Y466852D02*
D03*
Y442468D02*
D03*
D16*
X44530Y272780D02*
D03*
Y266280D02*
D03*
Y259780D02*
D03*
Y253280D02*
D03*
Y246780D02*
D03*
D17*
X42280Y291780D02*
D03*
Y227780D02*
D03*
D18*
X17780Y271780D02*
D03*
Y247780D02*
D03*
D19*
X571750Y288500D02*
D03*
X552750D02*
D03*
X259740Y393700D02*
D03*
X278740D02*
D03*
X155600Y424180D02*
D03*
X174600D02*
D03*
X116180Y149860D02*
D03*
X97180D02*
D03*
X113640Y193040D02*
D03*
X94640D02*
D03*
X155600Y403860D02*
D03*
X174600D02*
D03*
X241960Y71120D02*
D03*
X260960D02*
D03*
X603860Y457200D02*
D03*
X584860D02*
D03*
X574700Y335280D02*
D03*
X593700D02*
D03*
X368960Y251460D02*
D03*
X387960D02*
D03*
X516280Y464820D02*
D03*
X535280D02*
D03*
X551840D02*
D03*
X570840D02*
D03*
X206400Y271780D02*
D03*
X225400D02*
D03*
X155600Y383540D02*
D03*
X174600D02*
D03*
X93320Y454660D02*
D03*
X74320D02*
D03*
X16560Y205740D02*
D03*
X35560D02*
D03*
X71780Y256540D02*
D03*
X90780D02*
D03*
X71780Y236220D02*
D03*
X90780D02*
D03*
X130200Y190500D02*
D03*
X149200D02*
D03*
D20*
X583750Y241500D02*
D03*
X574250D02*
D03*
X564750D02*
D03*
X583750Y268500D02*
D03*
X564750D02*
D03*
X215240Y443700D02*
D03*
X205740D02*
D03*
X196240D02*
D03*
X215240Y470700D02*
D03*
X196240D02*
D03*
X571500Y398780D02*
D03*
X581000D02*
D03*
X590500D02*
D03*
X571500Y371780D02*
D03*
X590500D02*
D03*
D21*
X619760Y200660D02*
D03*
Y181660D02*
D03*
X160020Y464160D02*
D03*
Y445160D02*
D03*
X604520Y241960D02*
D03*
Y260960D02*
D03*
X330200Y95860D02*
D03*
Y76860D02*
D03*
X269240Y433680D02*
D03*
Y414680D02*
D03*
Y466700D02*
D03*
Y447700D02*
D03*
X284480Y95860D02*
D03*
Y76860D02*
D03*
X424180Y318160D02*
D03*
Y337160D02*
D03*
X199000Y242750D02*
D03*
Y223750D02*
D03*
D22*
X226720Y393700D02*
D03*
X245720D02*
D03*
X165000Y178250D02*
D03*
X184000D02*
D03*
X100940Y210820D02*
D03*
X81940D02*
D03*
X210820Y391160D02*
D03*
X191820D02*
D03*
X608280Y287020D02*
D03*
X589280D02*
D03*
X118720Y127000D02*
D03*
X99720D02*
D03*
X64820Y68580D02*
D03*
X83820D02*
D03*
X26060D02*
D03*
X45060D02*
D03*
X364440Y314960D02*
D03*
X345440D02*
D03*
X352400Y254000D02*
D03*
X333400D02*
D03*
X351180Y78740D02*
D03*
X370180D02*
D03*
X405740Y314960D02*
D03*
X386740D02*
D03*
X241960Y27940D02*
D03*
X260960D02*
D03*
X260960Y50800D02*
D03*
X241960D02*
D03*
X351180Y96520D02*
D03*
X370180D02*
D03*
X386740Y335280D02*
D03*
X405740D02*
D03*
X227280Y365760D02*
D03*
X208280D02*
D03*
X564540Y434340D02*
D03*
X583540D02*
D03*
X160250Y242000D02*
D03*
X179250D02*
D03*
X139040Y228600D02*
D03*
X120040D02*
D03*
X139040Y210820D02*
D03*
X120040D02*
D03*
X161250Y218500D02*
D03*
X180250D02*
D03*
X164250Y197500D02*
D03*
X183250D02*
D03*
D23*
X78620Y274320D02*
D03*
X63620D02*
D03*
X20440Y309880D02*
D03*
X35440D02*
D03*
D24*
X92620Y284420D02*
D03*
Y292420D02*
D03*
Y300420D02*
D03*
Y308420D02*
D03*
Y316420D02*
D03*
Y324420D02*
D03*
Y332420D02*
D03*
Y340420D02*
D03*
X176620D02*
D03*
Y332420D02*
D03*
Y324420D02*
D03*
Y316420D02*
D03*
Y308420D02*
D03*
Y300420D02*
D03*
Y292420D02*
D03*
Y284420D02*
D03*
D25*
X106620Y270420D02*
D03*
Y354420D02*
D03*
X114620Y270420D02*
D03*
Y354420D02*
D03*
X122620Y270420D02*
D03*
Y354420D02*
D03*
X130620Y270420D02*
D03*
Y354420D02*
D03*
X138620Y270420D02*
D03*
Y354420D02*
D03*
X146620Y270420D02*
D03*
Y354420D02*
D03*
X154620Y270420D02*
D03*
Y354420D02*
D03*
X162620Y270420D02*
D03*
Y354420D02*
D03*
D26*
X307340Y95860D02*
D03*
Y76860D02*
D03*
X426720Y258420D02*
D03*
Y239420D02*
D03*
X195580Y409600D02*
D03*
Y428600D02*
D03*
X622300Y145440D02*
D03*
Y164440D02*
D03*
X424180Y285140D02*
D03*
Y304140D02*
D03*
X388620Y76860D02*
D03*
Y95860D02*
D03*
X406400Y258420D02*
D03*
Y239420D02*
D03*
X408940Y76860D02*
D03*
Y95860D02*
D03*
X332740Y277520D02*
D03*
Y296520D02*
D03*
X246380Y365100D02*
D03*
Y346100D02*
D03*
D27*
X601980Y435100D02*
D03*
Y419100D02*
D03*
X248920Y415800D02*
D03*
Y431800D02*
D03*
Y448820D02*
D03*
Y464820D02*
D03*
D28*
X573280Y355600D02*
D03*
X589280D02*
D03*
D29*
X55640Y526220D02*
D03*
X25640D02*
D03*
X55640Y454220D02*
D03*
X25640D02*
D03*
X642860Y134180D02*
D03*
X672860D02*
D03*
X642860Y206180D02*
D03*
X672860D02*
D03*
D30*
X358460Y284480D02*
D03*
X398460D02*
D03*
D31*
X215900Y300040D02*
D03*
Y340040D02*
D03*
D32*
X50000Y173380D02*
D03*
Y182880D02*
D03*
Y192380D02*
D03*
X77000Y173380D02*
D03*
Y192380D02*
D03*
D33*
X53340Y152920D02*
D03*
D34*
X78740Y90920D02*
D03*
X66040D02*
D03*
X53340D02*
D03*
X40640D02*
D03*
X27940D02*
D03*
D35*
X142240Y160780D02*
D03*
Y128780D02*
D03*
D36*
X202000Y23000D02*
D03*
Y64000D02*
D03*
X200750Y100000D02*
D03*
Y141000D02*
D03*
M02*
