G04*
G04 #@! TF.GenerationSoftware,Altium Limited,Altium Designer,22.7.1 (60)*
G04*
G04 Layer_Physical_Order=1*
G04 Layer_Color=255*
%FSLAX44Y44*%
%MOMM*%
G71*
G04*
G04 #@! TF.SameCoordinates,93D02D30-53BF-4241-BF36-2AC50CD89F1B*
G04*
G04*
G04 #@! TF.FilePolarity,Positive*
G04*
G01*
G75*
%ADD14R,0.5588X0.6858*%
%ADD15R,0.6858X0.5588*%
%ADD16R,1.3500X0.4000*%
%ADD17R,1.4000X1.6000*%
%ADD18R,1.9000X1.9000*%
%ADD19R,0.7000X1.3000*%
%ADD20R,0.5500X1.0000*%
%ADD21R,1.3000X0.7000*%
%ADD22R,0.9000X1.3000*%
%ADD23R,0.6000X0.9000*%
%ADD24R,1.5000X0.5500*%
%ADD25R,0.5500X1.5000*%
%ADD26R,1.3000X0.9000*%
%ADD27R,0.8000X0.8000*%
%ADD28R,0.8000X0.8000*%
%ADD29R,1.4000X1.6000*%
%ADD30R,2.0000X2.5000*%
%ADD31R,2.5000X2.0000*%
%ADD32R,1.0000X0.5500*%
%ADD33R,3.5000X2.2000*%
%ADD34R,0.6000X2.2000*%
%ADD35R,2.7000X2.0000*%
%ADD36R,1.6000X3.0000*%
%ADD68C,0.5500*%
%ADD69C,0.3810*%
%ADD70C,0.4000*%
%ADD71C,0.6000*%
%ADD72C,0.7000*%
%ADD73C,0.5000*%
%ADD74C,0.5200*%
%ADD75C,0.8000*%
%ADD76C,1.0000*%
%ADD77O,2.0000X1.6000*%
%ADD78R,2.0000X1.6000*%
%ADD79O,1.6000X2.0000*%
%ADD80R,1.6000X2.0000*%
%ADD81C,4.0000*%
G04:AMPARAMS|DCode=82|XSize=2mm|YSize=1.2mm|CornerRadius=0.36mm|HoleSize=0mm|Usage=FLASHONLY|Rotation=0.000|XOffset=0mm|YOffset=0mm|HoleType=Round|Shape=RoundedRectangle|*
%AMROUNDEDRECTD82*
21,1,2.0000,0.4800,0,0,0.0*
21,1,1.2800,1.2000,0,0,0.0*
1,1,0.7200,0.6400,-0.2400*
1,1,0.7200,-0.6400,-0.2400*
1,1,0.7200,-0.6400,0.2400*
1,1,0.7200,0.6400,0.2400*
%
%ADD82ROUNDEDRECTD82*%
%ADD83C,3.2000*%
%ADD84C,7.4000*%
%ADD85C,0.6000*%
G36*
X281412Y480277D02*
Y416032D01*
X278913Y413533D01*
X277740Y414019D01*
Y420180D01*
X260740D01*
Y419318D01*
X254920D01*
Y421800D01*
X246210D01*
X245724Y422973D01*
X248551Y425800D01*
X254920D01*
Y437800D01*
X242920D01*
Y431431D01*
X234500Y423010D01*
X233637Y421719D01*
X233333Y420195D01*
Y416107D01*
X232064Y415581D01*
X231475Y416169D01*
X229637Y416930D01*
X228703D01*
X227646Y416952D01*
X227502Y418103D01*
Y437771D01*
X241747Y452016D01*
X242920Y451530D01*
Y442820D01*
X254920D01*
Y444182D01*
X260740D01*
Y442200D01*
X277740D01*
Y453200D01*
X260740D01*
Y452338D01*
X254920D01*
Y454820D01*
X246210D01*
X245724Y455993D01*
X248551Y458820D01*
X254920D01*
Y470820D01*
X242920D01*
Y464451D01*
X229790Y451321D01*
X228520Y451847D01*
Y453115D01*
X227759Y454952D01*
X226352Y456359D01*
X224515Y457120D01*
X222525D01*
X220688Y456359D01*
X219768Y455439D01*
X219467Y455379D01*
X218176Y454516D01*
X214359Y450700D01*
X211760D01*
X210490Y450700D01*
Y450700D01*
X210490D01*
Y450700D01*
X202260D01*
X200990Y450700D01*
Y450700D01*
X200990D01*
Y450700D01*
X191490D01*
Y436700D01*
X197250D01*
X197910Y435430D01*
X197678Y435100D01*
X187080D01*
Y428162D01*
X180100D01*
Y432680D01*
X169100D01*
Y415680D01*
X176130D01*
X176616Y414507D01*
X174469Y412360D01*
X169100D01*
Y395360D01*
X180100D01*
Y406729D01*
X185907Y412536D01*
X187080Y412050D01*
Y403100D01*
X198948D01*
X199241Y402392D01*
X199361Y401830D01*
X198546Y400611D01*
X198243Y399087D01*
Y386691D01*
X188668Y377117D01*
X161100D01*
Y392040D01*
X150100D01*
Y380671D01*
X144402Y374973D01*
X139419D01*
X137895Y374670D01*
X136603Y373807D01*
X133788Y370991D01*
X111609D01*
X89841Y392759D01*
X89884Y393014D01*
X91323Y394015D01*
X91534Y393974D01*
X111475D01*
X112999Y394277D01*
X114290Y395140D01*
X121328Y402177D01*
X122389Y401737D01*
X125000Y401394D01*
X129000D01*
X131610Y401737D01*
X134043Y402745D01*
X136132Y404348D01*
X137735Y406437D01*
X138743Y408870D01*
X139086Y411480D01*
X138743Y414090D01*
X137735Y416523D01*
X136132Y418612D01*
X134043Y420215D01*
X131610Y421223D01*
X129000Y421566D01*
X125000D01*
X122389Y421223D01*
X119957Y420215D01*
X117868Y418612D01*
X116265Y416523D01*
X115257Y414090D01*
X114914Y411480D01*
X115257Y408870D01*
X115697Y407808D01*
X109826Y401936D01*
X93183D01*
X90984Y404135D01*
X89693Y404998D01*
X88169Y405302D01*
X83485D01*
X83403Y405930D01*
X82395Y408363D01*
X80792Y410452D01*
X78703Y412055D01*
X76270Y413063D01*
X76200Y413072D01*
Y414968D01*
X76270Y414977D01*
X78703Y415985D01*
X80792Y417588D01*
X82395Y419677D01*
X83403Y422109D01*
X83746Y424720D01*
Y426720D01*
X90248D01*
Y421390D01*
X90552Y419866D01*
X91415Y418575D01*
X96015Y413974D01*
X97307Y413111D01*
X97738Y413025D01*
X101072Y409691D01*
X101761Y408028D01*
X103168Y406621D01*
X105006Y405860D01*
X106995D01*
X108832Y406621D01*
X110239Y408028D01*
X111000Y409865D01*
Y411855D01*
X110239Y413692D01*
X108832Y415099D01*
X106995Y415860D01*
X106165D01*
X102420Y419605D01*
X101128Y420468D01*
X100697Y420554D01*
X98211Y423039D01*
Y426720D01*
X137160D01*
X144780Y419100D01*
X148927Y423247D01*
X150100Y422761D01*
Y415680D01*
X161100D01*
Y432680D01*
X155731D01*
X153596Y434814D01*
Y449291D01*
X153841Y450522D01*
Y455351D01*
X157151Y458660D01*
X168520D01*
Y459740D01*
X180340D01*
X182658Y462058D01*
X185769D01*
Y465169D01*
X190317Y469717D01*
X191490Y469231D01*
Y463700D01*
X200990D01*
Y477700D01*
X199959D01*
X199473Y478873D01*
X203200Y482600D01*
X279090D01*
X281412Y480277D01*
D02*
G37*
G36*
X242920Y417410D02*
Y409800D01*
X254920D01*
Y411162D01*
X260740D01*
Y409180D01*
X272901D01*
X273387Y408007D01*
X266700Y401320D01*
X273240Y394780D01*
Y385200D01*
X273240D01*
X273182Y383954D01*
X271917D01*
X265317Y390554D01*
Y392105D01*
X265240Y392490D01*
Y402200D01*
X254240D01*
Y385200D01*
X259409D01*
X267452Y377157D01*
X268744Y376294D01*
X270268Y375991D01*
X276238D01*
X281940Y370289D01*
Y360639D01*
X275611Y354310D01*
X274320Y355600D01*
X268830D01*
X257225Y367205D01*
X255571Y368310D01*
X254880Y368447D01*
Y371600D01*
X237880D01*
Y370858D01*
X233780D01*
Y374260D01*
X231093D01*
X230606Y375433D01*
X240130Y384957D01*
X240993Y386249D01*
X241297Y387772D01*
Y417808D01*
X241650Y418061D01*
X242920Y417410D01*
D02*
G37*
G36*
X457200Y347980D02*
Y248920D01*
X441960Y233680D01*
X435220D01*
Y245920D01*
X418220D01*
Y243402D01*
X414900D01*
Y245920D01*
X410382D01*
Y247783D01*
X410078Y249307D01*
X409215Y250599D01*
X409164Y250650D01*
X409196Y250816D01*
X409900Y251822D01*
X410392Y251920D01*
X410895D01*
X410895Y251920D01*
X414900D01*
Y255925D01*
X414900Y255925D01*
Y256427D01*
X414998Y256920D01*
X414900Y257412D01*
Y257915D01*
X414900Y257915D01*
Y258947D01*
X415407Y259286D01*
X427064Y270943D01*
X427948Y272266D01*
X428031Y272684D01*
X428890Y273969D01*
X429278Y275920D01*
Y278640D01*
X432680D01*
Y280086D01*
X434411Y280430D01*
X436065Y281535D01*
X440485Y285955D01*
X440764Y286373D01*
X441119Y286728D01*
X441311Y287192D01*
X441590Y287609D01*
X441688Y288102D01*
X441880Y288565D01*
Y289067D01*
X441978Y289560D01*
Y314145D01*
X441590Y316096D01*
X440485Y317750D01*
X436970Y321265D01*
X435316Y322370D01*
X433365Y322758D01*
X432680D01*
Y323660D01*
X415680D01*
Y312660D01*
X424187D01*
X424680Y312562D01*
X431254D01*
X431782Y312034D01*
Y310640D01*
X415680D01*
Y305527D01*
X413052D01*
X412921Y305677D01*
X412240Y306665D01*
Y323460D01*
X399240D01*
Y312091D01*
X394510Y307361D01*
X393240Y307887D01*
Y323460D01*
X391838D01*
Y326780D01*
X393240D01*
Y343780D01*
X380240D01*
Y326780D01*
X381642D01*
Y323460D01*
X380240D01*
Y320058D01*
X370940D01*
Y323460D01*
X365150D01*
X358545Y330065D01*
X356891Y331170D01*
X355600Y331427D01*
Y375920D01*
X429260D01*
X457200Y347980D01*
D02*
G37*
G36*
X614063Y386830D02*
X614367Y385306D01*
X615064Y384263D01*
Y381759D01*
X598900Y365595D01*
X598037Y364304D01*
X597733Y362780D01*
Y303729D01*
X597060Y303055D01*
X596197Y301763D01*
X595894Y300240D01*
Y278902D01*
X596197Y277379D01*
X597060Y276087D01*
X604977Y268170D01*
X606269Y267307D01*
X607793Y267003D01*
X622352D01*
X622961Y265734D01*
X621725Y264123D01*
X620717Y261691D01*
X620374Y259080D01*
X620717Y256469D01*
X621725Y254037D01*
X623328Y251948D01*
X625417Y250345D01*
X627850Y249337D01*
X630460Y248994D01*
X634460D01*
X637071Y249337D01*
X639503Y250345D01*
X641592Y251948D01*
X643195Y254037D01*
X644203Y256469D01*
X644520Y258877D01*
X645800D01*
X646117Y256469D01*
X647125Y254037D01*
X648728Y251948D01*
X650817Y250345D01*
X653250Y249337D01*
X655860Y248994D01*
X657786D01*
X660400Y246380D01*
Y243680D01*
X645860D01*
Y223680D01*
X644774Y223235D01*
X635180D01*
X635180Y223235D01*
X633619Y222925D01*
X632296Y222041D01*
X627834Y217578D01*
X626129D01*
X625543Y218164D01*
X624220Y219048D01*
X622659Y219358D01*
X622659Y219358D01*
X611345D01*
X610190Y219129D01*
X608920Y219882D01*
Y220035D01*
X608159Y221872D01*
X607633Y222398D01*
X608159Y223668D01*
X608173D01*
X610010Y224429D01*
X611417Y225835D01*
X612178Y227673D01*
Y229662D01*
X611417Y231500D01*
X611257Y231660D01*
Y236460D01*
X613020D01*
Y247460D01*
X596020D01*
Y236460D01*
X603100D01*
Y231660D01*
X602939Y231500D01*
X602178Y229662D01*
Y228386D01*
X600908Y227859D01*
X588500Y240268D01*
Y248500D01*
X580270D01*
X579000Y248500D01*
Y248500D01*
X579000D01*
Y248500D01*
X569500D01*
Y248500D01*
X569500Y248500D01*
X568230Y248500D01*
X565987D01*
X563880Y250607D01*
Y261500D01*
X569500D01*
Y275500D01*
X568828D01*
Y277811D01*
X571018Y280000D01*
X577250D01*
Y297000D01*
X566250D01*
Y286768D01*
X565053Y285571D01*
X563880Y286057D01*
Y314960D01*
X533400Y345440D01*
Y381000D01*
Y383540D01*
X594360D01*
X596713Y385894D01*
X599261D01*
X600785Y386197D01*
X602077Y387060D01*
X604333Y389316D01*
X614063D01*
Y386830D01*
D02*
G37*
G36*
X190750Y126750D02*
Y124000D01*
X193500D01*
X199327Y118173D01*
X198841Y117000D01*
X190750D01*
Y105608D01*
X187985D01*
X185840Y105181D01*
X184020Y103965D01*
X179785Y99730D01*
X178569Y97911D01*
X178143Y95765D01*
X178569Y93619D01*
X179785Y91799D01*
X181604Y90584D01*
X183750Y90157D01*
X185896Y90584D01*
X187715Y91799D01*
X189480Y93564D01*
X190750Y93038D01*
Y83000D01*
X210750D01*
Y105091D01*
X211923Y105577D01*
X228600Y88900D01*
X264160D01*
X267066Y85994D01*
X260692Y79620D01*
X255460D01*
Y62620D01*
X256882D01*
Y59300D01*
X254460D01*
Y42300D01*
X267460D01*
Y59300D01*
X265038D01*
Y62620D01*
X266460D01*
Y67042D01*
X270091D01*
X276940Y60192D01*
Y59965D01*
X277701Y58128D01*
X279108Y56721D01*
X280409Y56182D01*
X303886Y32705D01*
X303685Y32443D01*
X302677Y30010D01*
X302334Y27400D01*
Y23400D01*
X302677Y20789D01*
X303685Y18357D01*
X305288Y16268D01*
X307377Y14665D01*
X309809Y13657D01*
X312420Y13314D01*
X315030Y13657D01*
X317463Y14665D01*
X319552Y16268D01*
X321155Y18357D01*
X322163Y20789D01*
X322506Y23400D01*
Y27400D01*
X322163Y30010D01*
X321155Y32443D01*
X319552Y34532D01*
X317463Y36135D01*
X315030Y37143D01*
X312420Y37486D01*
X310847Y37279D01*
X286940Y61186D01*
Y61955D01*
X286179Y63792D01*
X284772Y65199D01*
X282935Y65960D01*
X282708D01*
X278481Y70187D01*
X278967Y71360D01*
X281700D01*
X302260Y50800D01*
X307772D01*
X328219Y30353D01*
X328077Y30010D01*
X327734Y27400D01*
Y23400D01*
X328077Y20789D01*
X329085Y18357D01*
X330688Y16268D01*
X332777Y14665D01*
X335210Y13657D01*
X337820Y13314D01*
X340430Y13657D01*
X342863Y14665D01*
X344952Y16268D01*
X346555Y18357D01*
X347563Y20789D01*
X347906Y23400D01*
Y27400D01*
X347563Y30010D01*
X346555Y32443D01*
X344952Y34532D01*
X342863Y36135D01*
X340430Y37143D01*
X337820Y37486D01*
X335210Y37143D01*
X333622Y36485D01*
X320481Y49627D01*
X320967Y50800D01*
X348142D01*
X349095Y49375D01*
X357612Y40857D01*
Y35702D01*
X356088Y34532D01*
X354485Y32443D01*
X353477Y30010D01*
X353134Y27400D01*
Y23400D01*
X353477Y20789D01*
X354485Y18357D01*
X356088Y16268D01*
X358177Y14665D01*
X360610Y13657D01*
X363220Y13314D01*
X365830Y13657D01*
X368263Y14665D01*
X370352Y16268D01*
X371955Y18357D01*
X372963Y20789D01*
X373306Y23400D01*
Y27400D01*
X372963Y30010D01*
X371955Y32443D01*
X370352Y34532D01*
X368828Y35702D01*
Y43180D01*
X368401Y45326D01*
X367642Y46462D01*
X368321Y47732D01*
X391160D01*
X393306Y48159D01*
X395125Y49375D01*
X396550Y50800D01*
X410952D01*
Y37914D01*
X410561Y37329D01*
X410445Y36743D01*
X408977Y36135D01*
X406888Y34532D01*
X405285Y32443D01*
X404277Y30010D01*
X403934Y27400D01*
Y23400D01*
X404277Y20789D01*
X405285Y18357D01*
X406888Y16268D01*
X408977Y14665D01*
X411409Y13657D01*
X414020Y13314D01*
Y7620D01*
X413269Y6869D01*
X252211D01*
X242291Y16789D01*
X242416Y18053D01*
X243346Y18674D01*
X244111Y19440D01*
X248460D01*
Y36440D01*
X248078D01*
Y42300D01*
X248460D01*
Y59300D01*
X235460D01*
Y42300D01*
X235842D01*
Y36440D01*
X235460D01*
Y29118D01*
X229963D01*
X218440Y40640D01*
X200726D01*
X200427Y42144D01*
X199432Y43632D01*
X193735Y49329D01*
Y69226D01*
X193386Y70982D01*
X192391Y72470D01*
X191537Y73324D01*
Y73660D01*
X191072Y76001D01*
X189746Y77986D01*
X187761Y79312D01*
X185420Y79777D01*
X183079Y79312D01*
X181094Y77986D01*
X179768Y76001D01*
X179303Y73660D01*
Y73119D01*
X179768Y70778D01*
X181094Y68793D01*
X183079Y67467D01*
X184559Y67173D01*
Y47429D01*
X184908Y45673D01*
X185132Y45338D01*
X184533Y44218D01*
X181842D01*
X168450Y57610D01*
X167976Y58540D01*
X164368Y63507D01*
X160027Y67847D01*
X155060Y71456D01*
X154130Y71930D01*
X139700Y86360D01*
Y88024D01*
X140815Y89477D01*
X141823Y91910D01*
X142166Y94520D01*
Y98520D01*
X141823Y101131D01*
X140815Y103563D01*
X139212Y105652D01*
X137123Y107255D01*
X134691Y108263D01*
X132080Y108606D01*
X129469Y108263D01*
X127091Y107277D01*
X124300Y110068D01*
X124169Y110385D01*
X122762Y111791D01*
X120925Y112552D01*
X118935D01*
X117098Y111791D01*
X115691Y110385D01*
X114930Y108547D01*
Y106558D01*
X115691Y104720D01*
X117098Y103314D01*
X118935Y102552D01*
X120280D01*
X122263Y100569D01*
X121994Y98520D01*
Y94520D01*
X122337Y91910D01*
X123345Y89477D01*
X124948Y87388D01*
X127037Y85785D01*
X128926Y85002D01*
X129324Y83604D01*
X120114Y74394D01*
X119649Y74243D01*
X114180Y71456D01*
X113717Y71120D01*
X105389D01*
X104415Y72390D01*
X104668Y73660D01*
X104241Y75806D01*
X103025Y77625D01*
X94765Y85885D01*
X92946Y87101D01*
X90800Y87528D01*
X84348D01*
Y90920D01*
X83921Y93066D01*
X83740Y93337D01*
Y103920D01*
X73740D01*
Y96528D01*
X71040D01*
Y103920D01*
X61040D01*
Y93568D01*
X60728Y93188D01*
X59458Y93643D01*
Y114300D01*
X58992Y116641D01*
X57666Y118626D01*
X55681Y119952D01*
X53340Y120417D01*
X50999Y119952D01*
X49014Y118626D01*
X47688Y116641D01*
X47222Y114300D01*
Y90920D01*
Y79394D01*
X44908Y77080D01*
X38560D01*
Y60080D01*
X42909D01*
X53340Y49648D01*
Y48549D01*
X51624Y45981D01*
X49966Y41977D01*
X49120Y37727D01*
Y33393D01*
X49966Y29143D01*
X51624Y25139D01*
X53340Y22571D01*
Y7620D01*
X7620D01*
X6869Y8371D01*
Y147320D01*
X27954D01*
Y140302D01*
X28257Y138779D01*
X29120Y137487D01*
X31407Y135200D01*
X32699Y134337D01*
X34223Y134033D01*
X72457D01*
X73981Y134337D01*
X75273Y135200D01*
X85952Y145878D01*
X91680D01*
Y141360D01*
X100754D01*
Y137964D01*
X98289Y135500D01*
X93220D01*
Y135148D01*
X86360D01*
X84214Y134721D01*
X82395Y133505D01*
X81179Y131686D01*
X80752Y129540D01*
X81179Y127394D01*
X82395Y125575D01*
X84214Y124359D01*
X86360Y123932D01*
X93220D01*
Y120578D01*
X81311D01*
X78438Y123451D01*
X77899Y124752D01*
X76492Y126159D01*
X74655Y126920D01*
X72665D01*
X70828Y126159D01*
X69421Y124752D01*
X68660Y122915D01*
Y120925D01*
X69421Y119088D01*
X70828Y117681D01*
X72665Y116920D01*
X73433D01*
X76737Y113616D01*
X76737Y113616D01*
X78060Y112732D01*
X79621Y112422D01*
X110220D01*
X110220Y112422D01*
X111781Y112732D01*
X113104Y113616D01*
X117988Y118500D01*
X125220D01*
Y135500D01*
X118972D01*
X118746Y136045D01*
X117339Y137452D01*
X115502Y138213D01*
X113513D01*
X113025Y138011D01*
X111969Y138716D01*
Y141360D01*
X121680D01*
Y147320D01*
X170180D01*
X190750Y126750D01*
D02*
G37*
G36*
X365440Y112080D02*
X364954Y110906D01*
X364062D01*
X362539Y110603D01*
X361247Y109740D01*
X357865Y106358D01*
X357001Y105066D01*
X356698Y103542D01*
Y91147D01*
X352792Y87240D01*
X344680D01*
Y75871D01*
X339829Y71020D01*
X338700Y71687D01*
Y82360D01*
X321700D01*
Y71360D01*
X326122D01*
Y69033D01*
X325961Y68872D01*
X325200Y67035D01*
Y66427D01*
X323930Y65901D01*
X315917Y73914D01*
Y74265D01*
X315840Y74650D01*
Y83360D01*
X298840D01*
Y72927D01*
X297667Y72441D01*
X292980Y77128D01*
Y82360D01*
X275980D01*
Y71360D01*
X275980Y71360D01*
X276442Y70187D01*
X276597Y69406D01*
X277039Y68745D01*
X277039Y68745D01*
X281266Y64518D01*
X281266Y64518D01*
X281927Y64076D01*
X282364Y63989D01*
X283617Y63470D01*
X284450Y62637D01*
X284901Y61549D01*
Y61186D01*
X285056Y60406D01*
X285498Y59745D01*
X285498Y59745D01*
X309405Y35837D01*
X309517Y35763D01*
X309606Y35661D01*
X309845Y35543D01*
X310067Y35395D01*
X310199Y35369D01*
X310319Y35310D01*
X310586Y35292D01*
X310847Y35240D01*
X310979Y35266D01*
X311113Y35257D01*
X312420Y35429D01*
X314498Y35156D01*
X316435Y34354D01*
X318098Y33078D01*
X319374Y31415D01*
X320176Y29478D01*
X320467Y27266D01*
Y23534D01*
X320176Y21322D01*
X319761Y20320D01*
X305079D01*
X304664Y21322D01*
X304373Y23534D01*
Y27266D01*
X304664Y29478D01*
X305466Y31415D01*
X305504Y31464D01*
X305622Y31703D01*
X305770Y31925D01*
X305796Y32057D01*
X305856Y32177D01*
X305873Y32443D01*
X305925Y32705D01*
X305899Y32837D01*
X305908Y32971D01*
X305822Y33224D01*
X305770Y33486D01*
X305695Y33597D01*
X305652Y33725D01*
X305476Y33925D01*
X305328Y34147D01*
X281851Y57624D01*
X281189Y58066D01*
X280263Y58450D01*
X279430Y59283D01*
X278911Y60536D01*
X278824Y60973D01*
X278382Y61634D01*
X271533Y68484D01*
X270871Y68926D01*
X270091Y69081D01*
X266460D01*
X265680Y68926D01*
X265018Y68484D01*
X264576Y67822D01*
X264421Y67042D01*
Y64536D01*
X264258Y64504D01*
X263596Y64062D01*
X263154Y63400D01*
X262999Y62620D01*
Y59300D01*
X263154Y58520D01*
X263596Y57858D01*
X264258Y57416D01*
X265038Y57261D01*
X265421D01*
Y44339D01*
X256499D01*
Y57261D01*
X256882D01*
X257662Y57416D01*
X258324Y57858D01*
X258766Y58520D01*
X258921Y59300D01*
Y62620D01*
X258766Y63400D01*
X258324Y64062D01*
X257662Y64504D01*
X257499Y64536D01*
Y77159D01*
X257921Y77581D01*
X260692D01*
X261473Y77736D01*
X262134Y78178D01*
X262134Y78178D01*
X268508Y84552D01*
X268950Y85213D01*
X269105Y85994D01*
X268950Y86774D01*
X268508Y87436D01*
X268895Y88555D01*
X271780Y91440D01*
Y101983D01*
X321365D01*
X322889Y102287D01*
X324180Y103150D01*
X335331Y114300D01*
X363220D01*
X365440Y112080D01*
D02*
G37*
%LPC*%
G36*
X129000Y396166D02*
X125000D01*
X122389Y395823D01*
X119957Y394815D01*
X117868Y393212D01*
X116265Y391123D01*
X115257Y388690D01*
X114914Y386080D01*
X115257Y383470D01*
X116265Y381037D01*
X117868Y378948D01*
X119957Y377345D01*
X122389Y376337D01*
X125000Y375994D01*
X129000D01*
X131610Y376337D01*
X134043Y377345D01*
X136132Y378948D01*
X137735Y381037D01*
X138743Y383470D01*
X139086Y386080D01*
X138743Y388690D01*
X137735Y391123D01*
X136132Y393212D01*
X134043Y394815D01*
X131610Y395823D01*
X129000Y396166D01*
D02*
G37*
G36*
X432680Y342660D02*
X415680D01*
Y331660D01*
X432680D01*
Y333082D01*
X435309D01*
X437182Y331209D01*
X437721Y329908D01*
X439128Y328501D01*
X440965Y327740D01*
X442955D01*
X444792Y328501D01*
X446199Y329908D01*
X446960Y331745D01*
Y333735D01*
X446199Y335572D01*
X444792Y336979D01*
X442955Y337740D01*
X442187D01*
X439883Y340044D01*
X438559Y340928D01*
X436999Y341238D01*
X436999Y341238D01*
X432680D01*
Y342660D01*
D02*
G37*
G36*
X595250Y378780D02*
X585750D01*
Y370227D01*
X585512Y369871D01*
X585202Y368310D01*
X585202Y368310D01*
Y361600D01*
X583280D01*
Y349600D01*
X595280D01*
Y361600D01*
X593358D01*
Y364780D01*
X595250D01*
Y378780D01*
D02*
G37*
G36*
X579280Y361600D02*
X567280D01*
Y349600D01*
X569912D01*
Y343780D01*
X569200D01*
Y326780D01*
X580200D01*
Y343780D01*
X578068D01*
Y349600D01*
X579280D01*
Y361600D01*
D02*
G37*
G36*
X157480Y108606D02*
X154869Y108263D01*
X152437Y107255D01*
X150348Y105652D01*
X148745Y103563D01*
X147737Y101131D01*
X147394Y98520D01*
Y94520D01*
X147737Y91910D01*
X148745Y89477D01*
X150348Y87388D01*
X152437Y85785D01*
X154869Y84777D01*
X157480Y84434D01*
X160091Y84777D01*
X162523Y85785D01*
X164612Y87388D01*
X166215Y89477D01*
X167223Y91910D01*
X167566Y94520D01*
Y98520D01*
X167223Y101131D01*
X166215Y103563D01*
X164612Y105652D01*
X162523Y107255D01*
X160091Y108263D01*
X157480Y108606D01*
D02*
G37*
G36*
X297020Y37400D02*
X277020D01*
Y13400D01*
X297020D01*
Y37400D01*
D02*
G37*
%LPD*%
D14*
X94488Y172720D02*
D03*
X118872D02*
D03*
D15*
X180340Y466852D02*
D03*
Y442468D02*
D03*
D16*
X44530Y272780D02*
D03*
Y266280D02*
D03*
Y259780D02*
D03*
Y253280D02*
D03*
Y246780D02*
D03*
D17*
X42280Y291780D02*
D03*
Y227780D02*
D03*
D18*
X17780Y271780D02*
D03*
Y247780D02*
D03*
D19*
X571750Y288500D02*
D03*
X552750D02*
D03*
X259740Y393700D02*
D03*
X278740D02*
D03*
X155600Y424180D02*
D03*
X174600D02*
D03*
X116180Y149860D02*
D03*
X97180D02*
D03*
X113640Y193040D02*
D03*
X94640D02*
D03*
X155600Y403860D02*
D03*
X174600D02*
D03*
X241960Y71120D02*
D03*
X260960D02*
D03*
X603860Y457200D02*
D03*
X584860D02*
D03*
X574700Y335280D02*
D03*
X593700D02*
D03*
X368960Y251460D02*
D03*
X387960D02*
D03*
X516280Y464820D02*
D03*
X535280D02*
D03*
X551840D02*
D03*
X570840D02*
D03*
X206400Y271780D02*
D03*
X225400D02*
D03*
X155600Y383540D02*
D03*
X174600D02*
D03*
X93320Y454660D02*
D03*
X74320D02*
D03*
X16560Y205740D02*
D03*
X35560D02*
D03*
X71780Y256540D02*
D03*
X90780D02*
D03*
X71780Y236220D02*
D03*
X90780D02*
D03*
X130200Y190500D02*
D03*
X149200D02*
D03*
D20*
X583750Y241500D02*
D03*
X574250D02*
D03*
X564750D02*
D03*
X583750Y268500D02*
D03*
X564750D02*
D03*
X215240Y443700D02*
D03*
X205740D02*
D03*
X196240D02*
D03*
X215240Y470700D02*
D03*
X196240D02*
D03*
X571500Y398780D02*
D03*
X581000D02*
D03*
X590500D02*
D03*
X571500Y371780D02*
D03*
X590500D02*
D03*
D21*
X619760Y200660D02*
D03*
Y181660D02*
D03*
X160020Y464160D02*
D03*
Y445160D02*
D03*
X604520Y241960D02*
D03*
Y260960D02*
D03*
X330200Y95860D02*
D03*
Y76860D02*
D03*
X269240Y433680D02*
D03*
Y414680D02*
D03*
Y466700D02*
D03*
Y447700D02*
D03*
X284480Y95860D02*
D03*
Y76860D02*
D03*
X424180Y318160D02*
D03*
Y337160D02*
D03*
X199000Y242750D02*
D03*
Y223750D02*
D03*
D22*
X226720Y393700D02*
D03*
X245720D02*
D03*
X165000Y178250D02*
D03*
X184000D02*
D03*
X100940Y210820D02*
D03*
X81940D02*
D03*
X210820Y391160D02*
D03*
X191820D02*
D03*
X608280Y287020D02*
D03*
X589280D02*
D03*
X118720Y127000D02*
D03*
X99720D02*
D03*
X64820Y68580D02*
D03*
X83820D02*
D03*
X26060D02*
D03*
X45060D02*
D03*
X364440Y314960D02*
D03*
X345440D02*
D03*
X352400Y254000D02*
D03*
X333400D02*
D03*
X351180Y78740D02*
D03*
X370180D02*
D03*
X405740Y314960D02*
D03*
X386740D02*
D03*
X241960Y27940D02*
D03*
X260960D02*
D03*
X260960Y50800D02*
D03*
X241960D02*
D03*
X351180Y96520D02*
D03*
X370180D02*
D03*
X386740Y335280D02*
D03*
X405740D02*
D03*
X227280Y365760D02*
D03*
X208280D02*
D03*
X564540Y434340D02*
D03*
X583540D02*
D03*
X160250Y242000D02*
D03*
X179250D02*
D03*
X139040Y228600D02*
D03*
X120040D02*
D03*
X139040Y210820D02*
D03*
X120040D02*
D03*
X161250Y218500D02*
D03*
X180250D02*
D03*
X164250Y197500D02*
D03*
X183250D02*
D03*
D23*
X78620Y274320D02*
D03*
X63620D02*
D03*
X20440Y309880D02*
D03*
X35440D02*
D03*
D24*
X92620Y284420D02*
D03*
Y292420D02*
D03*
Y300420D02*
D03*
Y308420D02*
D03*
Y316420D02*
D03*
Y324420D02*
D03*
Y332420D02*
D03*
Y340420D02*
D03*
X176620D02*
D03*
Y332420D02*
D03*
Y324420D02*
D03*
Y316420D02*
D03*
Y308420D02*
D03*
Y300420D02*
D03*
Y292420D02*
D03*
Y284420D02*
D03*
D25*
X106620Y270420D02*
D03*
Y354420D02*
D03*
X114620Y270420D02*
D03*
Y354420D02*
D03*
X122620Y270420D02*
D03*
Y354420D02*
D03*
X130620Y270420D02*
D03*
Y354420D02*
D03*
X138620Y270420D02*
D03*
Y354420D02*
D03*
X146620Y270420D02*
D03*
Y354420D02*
D03*
X154620Y270420D02*
D03*
Y354420D02*
D03*
X162620Y270420D02*
D03*
Y354420D02*
D03*
D26*
X307340Y95860D02*
D03*
Y76860D02*
D03*
X426720Y258420D02*
D03*
Y239420D02*
D03*
X195580Y409600D02*
D03*
Y428600D02*
D03*
X622300Y145440D02*
D03*
Y164440D02*
D03*
X424180Y285140D02*
D03*
Y304140D02*
D03*
X388620Y76860D02*
D03*
Y95860D02*
D03*
X406400Y258420D02*
D03*
Y239420D02*
D03*
X408940Y76860D02*
D03*
Y95860D02*
D03*
X332740Y277520D02*
D03*
Y296520D02*
D03*
X246380Y365100D02*
D03*
Y346100D02*
D03*
D27*
X601980Y435100D02*
D03*
Y419100D02*
D03*
X248920Y415800D02*
D03*
Y431800D02*
D03*
Y448820D02*
D03*
Y464820D02*
D03*
D28*
X573280Y355600D02*
D03*
X589280D02*
D03*
D29*
X55640Y526220D02*
D03*
X25640D02*
D03*
X55640Y454220D02*
D03*
X25640D02*
D03*
X642860Y134180D02*
D03*
X672860D02*
D03*
X642860Y206180D02*
D03*
X672860D02*
D03*
D30*
X358460Y284480D02*
D03*
X398460D02*
D03*
D31*
X215900Y300040D02*
D03*
Y340040D02*
D03*
D32*
X50000Y173380D02*
D03*
Y182880D02*
D03*
Y192380D02*
D03*
X77000Y173380D02*
D03*
Y192380D02*
D03*
D33*
X53340Y152920D02*
D03*
D34*
X78740Y90920D02*
D03*
X66040D02*
D03*
X53340D02*
D03*
X40640D02*
D03*
X27940D02*
D03*
D35*
X142240Y160780D02*
D03*
Y128780D02*
D03*
D36*
X202000Y23000D02*
D03*
Y64000D02*
D03*
X200750Y100000D02*
D03*
Y141000D02*
D03*
D68*
X149725Y218440D02*
X149860D01*
X143315Y224850D02*
X149725Y218440D01*
X140790Y224850D02*
X143315D01*
X137928Y237588D02*
X154620Y254280D01*
X139040Y226600D02*
Y228600D01*
X137928Y227172D02*
X139040Y226060D01*
X137928Y227172D02*
Y237588D01*
X139040Y226600D02*
X140790Y224850D01*
X154620Y254280D02*
Y270420D01*
D69*
X103074Y240815D02*
X111304Y249045D01*
X90780Y256540D02*
X122829D01*
X135441Y247201D02*
X146620Y258380D01*
X126358Y253011D02*
X129514D01*
X122829Y256540D02*
X126358Y253011D01*
X111304Y249045D02*
X122107D01*
X129514Y253011D02*
X137775Y261271D01*
X123952Y247201D02*
X135441D01*
X122107Y249045D02*
X123952Y247201D01*
X413601Y276441D02*
X414020Y276860D01*
X398669Y268075D02*
X410078D01*
X413601Y271598D02*
Y276441D01*
X410078Y268075D02*
X413601Y271598D01*
X395995Y265401D02*
X398669Y268075D01*
X395995Y252302D02*
Y265401D01*
X404168Y250015D02*
X406400Y247783D01*
X395995Y252302D02*
X398283Y250015D01*
X406400Y239420D02*
Y247783D01*
X398283Y250015D02*
X404168D01*
X406400Y239420D02*
X426720D01*
X398460Y286980D02*
X413025Y301545D01*
X398460Y284480D02*
Y286980D01*
X413025Y301545D02*
X421585D01*
X221162Y376165D02*
X225707D01*
X214683Y375879D02*
X220877D01*
X201564Y376165D02*
X214398D01*
X220877Y375879D02*
X221162Y376165D01*
X214398D02*
X214683Y375879D01*
X192724Y367325D02*
X201564Y376165D01*
X225707D02*
X237315Y387772D01*
Y420195D01*
X159753Y367325D02*
X192724D01*
X202225Y385042D02*
Y399087D01*
X190317Y373135D02*
X202225Y385042D01*
X157346Y373135D02*
X190317D01*
X206833Y403695D02*
X210260D01*
X223520Y416955D01*
Y439420D01*
X202225Y399087D02*
X206833Y403695D01*
X616843Y392267D02*
X617292D01*
X619440Y394415D01*
X191655Y187905D02*
Y205618D01*
X183368Y213905D02*
X191655Y205618D01*
X182845Y213905D02*
X183368D01*
X184000Y178250D02*
Y180250D01*
X191655Y187905D01*
X180250Y216500D02*
X182845Y213905D01*
X180250Y216500D02*
Y218500D01*
X168655Y232095D02*
Y250117D01*
Y232095D02*
X180250Y220500D01*
X452300Y137300D02*
X529442Y60158D01*
X497840Y25400D02*
X529442Y57002D01*
Y60158D01*
X482033Y132968D02*
X486792D01*
X556260Y58420D02*
Y63500D01*
X477700Y137300D02*
X482033Y132968D01*
X486792D02*
X556260Y63500D01*
X523240Y25400D02*
X556260Y58420D01*
X528500Y135300D02*
X579120Y84680D01*
Y35727D02*
Y84680D01*
X574040Y30647D02*
X579120Y35727D01*
X574040Y25400D02*
Y30647D01*
X566420Y43180D02*
Y76200D01*
X548640Y25400D02*
X566420Y43180D01*
X511098Y131522D02*
X566420Y76200D01*
X504399Y137300D02*
X510177Y131522D01*
X503100Y137300D02*
X504399D01*
X510177Y131522D02*
X511098D01*
X528500Y135300D02*
Y137300D01*
X599440Y48260D02*
Y109220D01*
X579300Y137300D02*
X581632Y134967D01*
Y127028D02*
Y134967D01*
Y127028D02*
X599440Y109220D01*
X616682Y31018D02*
X617923D01*
X599440Y48260D02*
X616682Y31018D01*
X623541Y25400D02*
X624840D01*
X617923Y31018D02*
X623541Y25400D01*
X598441D02*
X599440D01*
X588177Y35664D02*
Y103023D01*
Y35664D02*
X598441Y25400D01*
X553900Y137300D02*
X588177Y103023D01*
X542410Y440810D02*
X552118Y450518D01*
X530860Y440810D02*
X542410D01*
X552118Y450518D02*
X559538D01*
X520276Y250982D02*
Y430227D01*
X530860Y440810D01*
X520276Y250982D02*
X553900Y217358D01*
X510995Y447300D02*
Y447893D01*
X515707Y464247D02*
X516280Y464820D01*
X513080Y439620D02*
X535280Y461820D01*
X498280Y488120D02*
X514415Y504255D01*
X503100Y213500D02*
X504090Y214490D01*
X510995Y447893D02*
X515707Y452605D01*
X492470Y492470D02*
X508208Y508208D01*
X504090Y484657D02*
X517878Y498445D01*
X452300Y213500D02*
X492470Y253670D01*
X498280Y234080D02*
Y488120D01*
X492470Y253670D02*
Y492470D01*
X515707Y452605D02*
Y464247D01*
X513080Y228920D02*
Y439620D01*
X504090Y214490D02*
Y484657D01*
X513080Y228920D02*
X528500Y213500D01*
X477700D02*
X498280Y234080D01*
X508208Y508208D02*
Y515827D01*
X510540Y518160D01*
X514415Y504255D02*
X524035D01*
X517878Y498445D02*
X535061D01*
X524035Y504255D02*
X535940Y516160D01*
Y518160D01*
X535061Y498445D02*
X547845Y511229D01*
X274320Y213680D02*
X274500Y213500D01*
X274320Y213680D02*
Y306305D01*
X237195Y220431D02*
X268510Y251746D01*
Y308712D01*
X320040Y360242D01*
X274320Y306305D02*
X325850Y357835D01*
X291020Y306572D02*
X337470Y353022D01*
X285210Y263430D02*
Y308979D01*
X291020Y275400D02*
Y306572D01*
X285210Y308979D02*
X331660Y355429D01*
X285210Y263430D02*
X309880Y238760D01*
X291020Y275400D02*
X322580Y243840D01*
X299900Y213500D02*
X309880Y223480D01*
Y238760D01*
X322968Y215833D02*
Y223439D01*
X322580Y223827D02*
X322968Y223439D01*
Y215833D02*
X325300Y213500D01*
X322580Y223827D02*
Y243840D01*
X237315Y420195D02*
X248920Y431800D01*
X155465Y363037D02*
X159753Y367325D01*
X147465Y363254D02*
X157346Y373135D01*
X106680Y312420D02*
X117506Y323246D01*
X106680Y287497D02*
Y312420D01*
X117506Y323246D02*
Y325562D01*
X104448Y285265D02*
X106680Y287497D01*
X93465Y285265D02*
X104448D01*
X117506Y325562D02*
X117925Y325981D01*
X92620Y284420D02*
X93465Y285265D01*
X87870Y284420D02*
X92620D01*
X53881Y327660D02*
X73121Y308420D01*
X22860Y342900D02*
X38100Y327660D01*
X53881D01*
X20440Y311380D02*
X27345Y318285D01*
X40058D01*
X48677Y309665D01*
X20440Y309880D02*
Y311380D01*
X48677Y309665D02*
X58947D01*
X63285Y305327D01*
X50302Y279280D02*
X63285Y292263D01*
X223520Y439420D02*
X248920Y464820D01*
X186110Y418370D02*
X201873D01*
X215240Y431738D02*
Y445950D01*
X201873Y418370D02*
X215240Y431738D01*
X197580Y428600D02*
X204895Y435915D01*
X193580Y428600D02*
X195580D01*
X204895Y435915D02*
Y442855D01*
X195580Y428600D02*
X197580D01*
X165712Y466852D02*
X180340D01*
X163020Y464160D02*
X165712Y466852D01*
X157020Y464160D02*
X163020D01*
X149615Y433165D02*
X155600Y427180D01*
X149860Y450522D02*
Y457000D01*
X143235Y450375D02*
X149860Y457000D01*
X157020Y464160D01*
X149615Y433165D02*
Y450277D01*
X149860Y450522D01*
X55640Y455220D02*
X65485Y465065D01*
X98438D01*
X113127Y450375D01*
X357937Y285003D02*
X358460Y284480D01*
X345440Y312960D02*
X357937Y300463D01*
Y285003D02*
Y300463D01*
X337470Y443713D02*
X345132Y451375D01*
X253270Y253270D02*
Y309905D01*
X247460Y255677D02*
Y312312D01*
X325850Y357835D02*
Y458953D01*
X232805Y263662D02*
Y314090D01*
X259080Y307498D02*
X314230Y362649D01*
X307340Y363975D02*
Y500380D01*
X241650Y258083D02*
Y314718D01*
X251152Y332437D02*
Y336242D01*
X320040Y360242D02*
Y473633D01*
X241650Y314718D02*
X290818Y363886D01*
X331660Y355429D02*
Y451333D01*
X337512Y457185D01*
X300235Y365087D02*
Y497922D01*
X259080Y250533D02*
Y307498D01*
X247460Y312312D02*
X300235Y365087D01*
X232805Y314090D02*
X251152Y332437D01*
X314230Y362649D02*
Y483169D01*
X337470Y353022D02*
Y443713D01*
X277887Y379972D02*
X290818Y367042D01*
Y363886D02*
Y367042D01*
X253270Y309905D02*
X307340Y363975D01*
X325850Y458953D02*
X329892Y462995D01*
X285723Y403683D02*
X289430D01*
X274320Y515620D02*
X294425Y495515D01*
X289430Y403683D02*
X294425Y408678D01*
X299720Y498437D02*
X300235Y497922D01*
X294425Y408678D02*
Y495515D01*
X274320Y518160D02*
Y520160D01*
Y515620D02*
Y518160D01*
X77000Y192380D02*
X77165Y192545D01*
X85702D01*
X81940Y212820D02*
X83940Y214820D01*
X199495Y351657D02*
X200445Y352607D01*
X199495Y328423D02*
Y351657D01*
Y328423D02*
X205305Y322612D01*
X200445Y355925D02*
X208280Y363760D01*
X200445Y352607D02*
Y355925D01*
X137775Y261271D02*
Y269575D01*
X36781Y240257D02*
X50326D01*
X53020Y237563D01*
X33875Y243162D02*
X36781Y240257D01*
X73121Y308420D02*
X92620D01*
X63285Y292263D02*
Y305327D01*
X94230Y421390D02*
X98830Y416790D01*
X94230Y421390D02*
Y453750D01*
X93320Y454660D02*
X94230Y453750D01*
X337512Y457185D02*
X426907D01*
X421960Y462995D02*
X434340Y475375D01*
X345132Y451375D02*
X429313D01*
X426907Y457185D02*
X444500Y474778D01*
X429313Y451375D02*
X452120Y474182D01*
X329892Y462995D02*
X421960D01*
X422910Y473920D02*
Y483270D01*
X434340Y475375D02*
Y518160D01*
X424180Y484540D02*
Y493300D01*
X422910Y483270D02*
X424180Y484540D01*
X220991Y451701D02*
X223101D01*
X223520Y452120D01*
X299720Y498437D02*
Y518160D01*
X278740Y396700D02*
X285723Y403683D01*
X44607Y253357D02*
X56523D01*
X44530Y253280D02*
X44607Y253357D01*
X44625Y259685D02*
X53932D01*
X56892Y266491D02*
X57311Y266072D01*
X52397Y272685D02*
X56892Y268191D01*
Y266491D02*
Y268191D01*
X54451Y259167D02*
X59947D01*
X60420Y259639D01*
X53932Y259685D02*
X54451Y259167D01*
X56523Y253357D02*
X63500Y246380D01*
X71780Y256540D02*
Y258044D01*
X60420Y259639D02*
X70185D01*
X71780Y258044D01*
X70437Y237563D02*
X71780Y236220D01*
X53020Y237563D02*
X70437D01*
X599875Y278902D02*
Y300240D01*
X601715Y302080D01*
Y362780D01*
X599875Y278902D02*
X607793Y270985D01*
X643955D01*
X553900Y213500D02*
Y217358D01*
X141278Y301298D02*
X148400Y308420D01*
X141278Y298142D02*
X150041Y289379D01*
X148400Y308420D02*
X176620D01*
X141278Y298142D02*
Y301298D01*
X161775Y271265D02*
Y279037D01*
X151434Y289379D02*
X161775Y279037D01*
Y271265D02*
X162620Y270420D01*
X150041Y289379D02*
X151434D01*
X625160Y394415D02*
X629205Y398460D01*
X628981Y404404D02*
X629205Y404180D01*
X628981Y404404D02*
X644745Y420169D01*
X619440Y394415D02*
X625160D01*
X629205Y398460D02*
Y404180D01*
X644745Y420169D02*
Y509077D01*
X214650Y298790D02*
X215900Y300040D01*
X208280Y292420D02*
X214650Y298790D01*
X122270Y270770D02*
Y286670D01*
X121920Y287020D02*
X122270Y286670D01*
X33875Y276397D02*
X36758Y279280D01*
X50302D01*
X33875Y269163D02*
Y276397D01*
X92375Y240815D02*
X103074D01*
X84303Y149860D02*
X97180D01*
X72457Y138015D02*
X84303Y149860D01*
X174600Y403860D02*
Y406860D01*
X186110Y418370D01*
X396659Y302679D02*
Y303879D01*
X405740Y312960D01*
X396240Y302260D02*
X396659Y302679D01*
X421585Y301545D02*
X424180Y304140D01*
X601715Y362780D02*
X619045Y380110D01*
X553918Y303806D02*
X554337Y304225D01*
X553918Y289668D02*
Y303806D01*
X552750Y288500D02*
X553918Y289668D01*
X552750Y288500D02*
X553720Y287530D01*
X261005Y199595D02*
X558831D01*
X565805Y206569D01*
X249100Y211500D02*
X261005Y199595D01*
X565805Y206569D02*
Y220431D01*
X333575Y59135D02*
X351180Y76740D01*
X325065Y59135D02*
X333575D01*
X311935Y72265D02*
X325065Y59135D01*
X351180Y76740D02*
Y80740D01*
X309340Y76860D02*
X311935Y74265D01*
Y72265D02*
Y74265D01*
X261335Y388905D02*
Y392105D01*
X259740Y393700D02*
X261335Y392105D01*
Y388905D02*
X270268Y379972D01*
X277887D01*
X602684Y393298D02*
X615813D01*
X599261Y389875D02*
X602684Y393298D01*
X581845Y395685D02*
X583845Y393685D01*
X581000Y398780D02*
X581845Y397935D01*
X618045Y386830D02*
X619045Y385830D01*
X581845Y395685D02*
Y397935D01*
X618045Y386830D02*
Y391066D01*
X615813Y393298D02*
X618045Y391066D01*
X583845Y392163D02*
Y393685D01*
Y392163D02*
X586133Y389875D01*
X619045Y380110D02*
Y385830D01*
X586133Y389875D02*
X599261D01*
X543979Y452539D02*
Y453959D01*
X555120Y422780D02*
X569502D01*
X559879Y439001D02*
X559945Y438935D01*
X554139Y439001D02*
X559879D01*
X559945Y438935D02*
X561945D01*
X553720Y439420D02*
X554139Y439001D01*
X543979Y453959D02*
X551840Y461820D01*
X543560Y452120D02*
X543979Y452539D01*
X569502Y422780D02*
X572945Y426222D01*
X105534Y410860D02*
X106000D01*
X91534Y397955D02*
X111475D01*
X125000Y411480D01*
X98830Y416790D02*
X99605D01*
X105534Y410860D01*
X73660Y401320D02*
X88169D01*
X91534Y397955D01*
X125000Y411480D02*
X127000D01*
X79775Y386015D02*
X106620Y359170D01*
X44729Y386015D02*
X79775D01*
X61659Y416719D02*
Y438999D01*
X48260Y403320D02*
X61659Y416719D01*
X48260Y401320D02*
Y403320D01*
X41975Y380205D02*
X55191D01*
X87025Y348371D01*
Y341265D02*
X87870Y340420D01*
X92620D01*
X87025Y341265D02*
Y348371D01*
X22860Y399320D02*
X41975Y380205D01*
X106620Y354420D02*
Y359170D01*
X154620Y354420D02*
X155465Y355265D01*
Y363037D01*
X177800Y256540D02*
X179250Y255090D01*
Y242000D02*
Y255090D01*
X178277Y159483D02*
X189267D01*
X200750Y148000D01*
X176989Y158195D02*
X178277Y159483D01*
X166000Y158195D02*
X176989D01*
X163415Y160780D02*
X166000Y158195D01*
X200750Y141000D02*
Y148000D01*
X142240Y160780D02*
X163415D01*
X142240D02*
Y180340D01*
X81940Y210820D02*
Y212820D01*
X113640Y190040D02*
X118872Y184808D01*
X113640Y190040D02*
Y193040D01*
X118872Y172720D02*
Y184808D01*
X35560Y205740D02*
X45720D01*
X55880Y215900D01*
X63500Y196380D02*
Y210820D01*
X58905Y191785D02*
X63500Y196380D01*
X131661Y180759D02*
X132080Y180340D01*
X131661Y180759D02*
Y189039D01*
X130200Y190500D02*
X131661Y189039D01*
X73535Y222452D02*
X79185Y228102D01*
Y260468D01*
X73535Y193595D02*
Y222452D01*
X44530Y272780D02*
X44625Y272685D01*
X71780Y259780D02*
Y267480D01*
X44625Y272685D02*
X52397D01*
X44530Y259780D02*
X44625Y259685D01*
X76025Y271725D02*
X77525D01*
X71780Y267480D02*
X76025Y271725D01*
X77525D02*
X78620Y272820D01*
Y274320D01*
X33875Y269163D02*
X36662Y266375D01*
X44435D01*
X44530Y266280D01*
X116180Y149860D02*
Y169393D01*
X118872Y172085D01*
Y172720D01*
X52845Y185725D02*
X56617D01*
X50000Y182880D02*
X52845Y185725D01*
X56617D02*
X58905Y188013D01*
Y191785D01*
X50000Y173380D02*
Y182880D01*
X47750Y173380D02*
X50000D01*
X34223Y167825D02*
X42195D01*
X31935Y165537D02*
X34223Y167825D01*
X31935Y140302D02*
Y165537D01*
X42195Y167825D02*
X47750Y173380D01*
X31935Y140302D02*
X34223Y138015D01*
X72457D01*
X307340Y76860D02*
X309340D01*
X384025Y98455D02*
X386620Y95860D01*
X378992Y103488D02*
X384025Y98455D01*
X351180Y80740D02*
X353775Y83335D01*
X354518D01*
X360680Y89497D01*
Y103542D01*
X364062Y106925D01*
X376297D01*
X378992Y104231D01*
Y103488D02*
Y104231D01*
X386620Y95860D02*
X388620D01*
X376100Y118025D02*
Y137300D01*
Y118025D02*
X384025Y110099D01*
Y98455D02*
Y110099D01*
X405740Y312960D02*
Y314960D01*
X426900Y213500D02*
Y239240D01*
X426720Y239420D02*
X426900Y239240D01*
X621758Y532065D02*
X644745Y509077D01*
X146620Y258380D02*
Y270420D01*
X90780Y236220D02*
Y239220D01*
X92375Y240815D01*
X137775Y269575D02*
X138620Y270420D01*
X33875Y243162D02*
Y263398D01*
X36662Y266185D01*
X345440Y312960D02*
Y314960D01*
X358460Y281980D02*
Y284480D01*
X368960Y251460D02*
Y271480D01*
X358460Y281980D02*
X368960Y271480D01*
X350700Y230200D02*
X368960Y248460D01*
Y251460D01*
X350700Y213500D02*
Y230200D01*
X398460Y281980D02*
Y284480D01*
X387960Y251460D02*
Y271480D01*
X398460Y281980D01*
X376100Y236600D02*
X387960Y248460D01*
Y251460D01*
X376100Y213500D02*
Y236600D01*
X122270Y270770D02*
X122620Y270420D01*
X180000Y242750D02*
X199000D01*
X179250Y242000D02*
X180000Y242750D01*
X205305Y308135D02*
Y322612D01*
X208280Y363760D02*
Y365760D01*
X213400Y300040D02*
X215900D01*
X205305Y308135D02*
X213400Y300040D01*
X221960Y346100D02*
X246380D01*
X215900Y340040D02*
X221960Y346100D01*
X215900Y300040D02*
X217305D01*
X225400Y271780D02*
Y291945D01*
X217305Y300040D02*
X225400Y291945D01*
X250975Y336419D02*
X251152Y336242D01*
X246380Y346100D02*
X248380D01*
X250975Y343505D01*
Y336419D02*
Y343505D01*
X230518Y261375D02*
X232805Y263662D01*
X206400Y268780D02*
Y271780D01*
Y268780D02*
X213805Y261375D01*
X230518D01*
X213710Y230143D02*
X241650Y258083D01*
X219520Y227737D02*
X247460Y255677D01*
X225330Y225330D02*
X253270Y253270D01*
X231140Y222593D02*
X259080Y250533D01*
X176620Y284420D02*
X181370D01*
X194010Y271780D01*
X206400D01*
X176620Y292420D02*
X208280D01*
X162620Y256152D02*
Y270420D01*
Y256152D02*
X168655Y250117D01*
X180250Y218500D02*
Y220500D01*
X190750Y218500D02*
X196000Y223750D01*
X199000D01*
X180250Y218500D02*
X190750D01*
X177655Y212905D02*
Y215905D01*
X180250Y218500D01*
X145765Y202095D02*
X161655D01*
X164250Y197500D02*
Y199500D01*
X161655Y202095D02*
X164250Y199500D01*
X139040Y208820D02*
X145765Y202095D01*
X139040Y208820D02*
Y210820D01*
X164250Y195500D02*
Y197500D01*
X177155Y187095D02*
X184000Y180250D01*
X172678Y187095D02*
X177155D01*
X171117Y188655D02*
X172678Y187095D01*
X171095Y188655D02*
X171117D01*
X164250Y195500D02*
X171095Y188655D01*
X73535Y193595D02*
X74750Y192380D01*
X79185Y260468D02*
X87025Y268307D01*
Y283575D01*
X87870Y284420D01*
X74750Y192380D02*
X77000D01*
X129540Y330200D02*
X130725Y329015D01*
X130620Y331873D02*
Y354420D01*
X129540Y330200D02*
Y330793D01*
X130620Y331873D01*
X114460Y337980D02*
Y354260D01*
X114300Y337820D02*
X114460Y337980D01*
Y354260D02*
X114620Y354420D01*
X139419Y370991D02*
X146051D01*
X131465Y363037D02*
X139419Y370991D01*
X155600Y380540D02*
Y383540D01*
X146051Y370991D02*
X155600Y380540D01*
X147465Y355265D02*
Y363254D01*
X146620Y354420D02*
X147465Y355265D01*
X204895Y442855D02*
X205740Y443700D01*
X174600Y424180D02*
X189160D01*
X193580Y428600D01*
X61659Y438999D02*
X74320Y451660D01*
Y454660D01*
X155600Y424180D02*
Y427180D01*
X55640Y455220D02*
Y526220D01*
Y454220D02*
Y455220D01*
X113127Y450375D02*
X143235D01*
X111760Y434340D02*
X124460D01*
X127000Y436880D01*
X36355Y394389D02*
X44729Y386015D01*
X36355Y394389D02*
Y412815D01*
X48260Y424720D01*
Y426720D01*
X22860Y399320D02*
Y401320D01*
X69122Y348145D02*
X84002Y333265D01*
X69122Y348145D02*
Y349438D01*
X50260Y368300D02*
X69122Y349438D01*
X48260Y368300D02*
X50260D01*
X63975Y342900D02*
X81610Y325265D01*
X91775D01*
X74253Y320040D02*
X77873Y316420D01*
X92620D01*
X73660Y320040D02*
X74253D01*
X35560Y355600D02*
Y356193D01*
X22860Y368300D02*
X23453D01*
X35560Y356193D01*
X48260Y342900D02*
X63975D01*
X84002Y333265D02*
X91775D01*
Y325265D02*
X92620Y324420D01*
X91775Y333265D02*
X92620Y332420D01*
X131465Y355265D02*
Y363037D01*
X643955Y270985D02*
X655860Y259080D01*
X657860D01*
X286225Y532065D02*
X621758D01*
X274320Y520160D02*
X286225Y532065D01*
X572945Y426222D02*
Y440865D01*
X130620Y354420D02*
X131465Y355265D01*
X160037Y341356D02*
Y341948D01*
X161775Y343686D01*
X162560Y332740D02*
Y333333D01*
X165215Y335988D01*
Y336787D01*
X175775Y339575D02*
X176620Y340420D01*
X168002Y339575D02*
X175775D01*
X165215Y336787D02*
X168002Y339575D01*
X161775Y343686D02*
Y353575D01*
X162620Y354420D01*
X215240Y445950D02*
X220991Y451701D01*
X589902Y444500D02*
X624840D01*
X576580D02*
X577178D01*
X589658Y444745D02*
X589902Y444500D01*
X577178D02*
X577422Y444745D01*
X589658D01*
X572945Y440865D02*
X576580Y444500D01*
X551840Y461820D02*
Y464820D01*
X564540Y434340D02*
Y436340D01*
X561945Y438935D02*
X564540Y436340D01*
X559538Y450518D02*
X570840Y461820D01*
X535280D02*
Y467820D01*
X570840Y461820D02*
Y464820D01*
X572435Y466415D01*
X553720Y232516D02*
Y287530D01*
Y232516D02*
X565805Y220431D01*
X452120Y474182D02*
Y487680D01*
X478223Y512542D02*
X483841Y518160D01*
X476982Y512542D02*
X478223D01*
X452120Y487680D02*
X476982Y512542D01*
X483841Y518160D02*
X485140D01*
X459740Y516160D02*
Y518160D01*
X444500Y500920D02*
X459740Y516160D01*
X444500Y474778D02*
Y500920D01*
X401320Y516160D02*
X424180Y493300D01*
X401320Y516160D02*
Y518160D01*
X249100Y211500D02*
Y213500D01*
X366526Y510065D02*
X374621Y518160D01*
X375920D01*
X320040Y473633D02*
X350662Y504255D01*
X355451D01*
X361261Y510065D01*
X366526D01*
X237195Y151205D02*
X249100Y139300D01*
Y137300D02*
Y139300D01*
X237195Y151205D02*
Y220431D01*
X231140Y136424D02*
Y222593D01*
X321365Y105965D02*
X350700Y135300D01*
X213710Y129204D02*
X236949Y105965D01*
X219520Y131611D02*
Y227737D01*
X213710Y129204D02*
Y230143D01*
X225330Y134017D02*
Y225330D01*
X231140Y136424D02*
X244169Y123395D01*
X225330Y134017D02*
X241762Y117585D01*
X282185D02*
X299900Y135300D01*
X219520Y131611D02*
X239356Y111775D01*
X241762Y117585D02*
X282185D01*
X301775Y111775D02*
X325300Y135300D01*
X239356Y111775D02*
X301775D01*
X244169Y123395D02*
X262595D01*
X236949Y105965D02*
X321365D01*
X278740Y393700D02*
Y396700D01*
X314230Y483169D02*
X338501Y507439D01*
X338501D01*
X342983Y511921D01*
X342983D02*
X349221Y518160D01*
X342983Y511921D02*
X342983D01*
X349221Y518160D02*
X350520D01*
X307340Y500380D02*
X325120Y518160D01*
X350700Y135300D02*
Y137300D01*
X299900Y135300D02*
Y137300D01*
X262595Y123395D02*
X274500Y135300D01*
Y137300D01*
X325300Y135300D02*
Y137300D01*
X547845Y513415D02*
X550077Y515647D01*
X558827D02*
X561340Y518160D01*
X550077Y515647D02*
X558827D01*
X547845Y511229D02*
Y513415D01*
X585620Y518160D02*
X586740D01*
X535280Y467820D02*
X585620Y518160D01*
X572435Y466415D02*
Y476455D01*
X612140Y516160D02*
Y518160D01*
X572435Y476455D02*
X612140Y516160D01*
D70*
X412523Y262170D02*
X414513Y264160D01*
X424180Y273827D02*
Y275920D01*
X414513Y264160D02*
X424180Y273827D01*
X412150Y262170D02*
X412523D01*
X408400Y258420D02*
X412150Y262170D01*
X218813Y383167D02*
X219196Y382784D01*
X210820Y391160D02*
Y391200D01*
X216813Y383167D02*
X218813D01*
X210820Y389160D02*
X216813Y383167D01*
X210820Y389160D02*
Y391160D01*
X206400Y409600D02*
X210820Y414020D01*
X195580Y409600D02*
X206400D01*
X160750Y238000D02*
X161250Y237500D01*
X159990Y238760D02*
X160750Y238000D01*
Y241500D01*
Y217000D02*
Y238000D01*
Y217000D02*
X161250Y216500D01*
X160250Y242000D02*
X160750Y241500D01*
X174093Y208000D02*
X175093Y207000D01*
X161250Y216500D02*
Y218500D01*
Y216500D02*
X169750Y208000D01*
X175750Y207000D02*
X183250Y199500D01*
X169750Y208000D02*
X174093D01*
X175093Y207000D02*
X175750D01*
X161250Y218500D02*
Y237500D01*
X183250Y197500D02*
Y199500D01*
X157750Y238760D02*
X159990D01*
X228260Y395240D02*
Y411548D01*
X226720Y393700D02*
X228260Y395240D01*
Y411548D02*
X228643Y411930D01*
X132433Y467713D02*
X140053D01*
X147320Y474980D01*
X194210D01*
X127000Y462280D02*
X132433Y467713D01*
X194210Y474980D02*
X196240Y472950D01*
Y470700D02*
Y472950D01*
X152400Y238760D02*
X157750D01*
X160250Y241260D02*
Y242000D01*
X157750Y238760D02*
X160250Y241260D01*
X114507Y133213D02*
X118720Y129000D01*
Y125000D02*
Y129000D01*
X659860Y284480D02*
X671860Y272480D01*
X657860Y284480D02*
X659860D01*
X671860Y224023D02*
Y272480D01*
X666994Y219157D02*
X671860Y224023D01*
X635180Y219157D02*
X666994D01*
X130495Y270295D02*
X130620Y270420D01*
X130370Y263631D02*
X130495Y263757D01*
Y270295D01*
X53047Y246780D02*
X53375Y246452D01*
X279980Y94360D02*
X281480Y95860D01*
X284480D01*
X260960Y71120D02*
Y74120D01*
X279980Y93140D01*
Y94360D01*
X281940Y60419D02*
Y60960D01*
X312420Y25400D02*
Y29939D01*
X281940Y60419D02*
X312420Y29939D01*
X271780Y71120D02*
X281940Y60960D01*
X260960Y71120D02*
X271780D01*
X260960Y50800D02*
Y71120D01*
X260960Y50800D02*
X260960Y50800D01*
X249480Y448260D02*
X268680D01*
X248920Y448820D02*
X249480Y448260D01*
X268680D02*
X269240Y447700D01*
X248920Y415800D02*
X249480Y415240D01*
X268680D01*
X269240Y414680D01*
X76200Y286900D02*
Y287020D01*
X63620Y274320D02*
X76200Y286900D01*
X73660Y121920D02*
X74201D01*
X79621Y116500D01*
X110220D02*
X118720Y125000D01*
X79621Y116500D02*
X110220D01*
X53340Y152920D02*
X57900Y157480D01*
X23540Y452120D02*
X25640Y454220D01*
X12700Y452120D02*
X23540D01*
X210820Y391200D02*
X213320Y393700D01*
X226720D01*
X436999Y337160D02*
X441419Y332740D01*
X441960D01*
X424180Y337160D02*
X436999D01*
X330200Y66040D02*
Y76860D01*
X263777Y368683D02*
Y373643D01*
X245720Y391700D02*
Y393700D01*
X263777Y368683D02*
X264160Y368300D01*
X609217Y494917D02*
X609600Y495300D01*
X623300Y471440D02*
X624840Y469900D01*
X605798Y494917D02*
X609217D01*
X584860Y457200D02*
Y473979D01*
X605798Y494917D01*
X592220Y471440D02*
X623300D01*
X553720Y411480D02*
X580703D01*
X583540Y434340D02*
X591820D01*
X153950Y182750D02*
X162500D01*
X149200Y187500D02*
Y190500D01*
X165000Y178250D02*
Y180250D01*
X162500Y182750D02*
X165000Y180250D01*
X149200Y187500D02*
X153950Y182750D01*
X165000Y176250D02*
X172337Y168913D01*
Y165483D02*
Y168913D01*
Y165483D02*
X172720Y165100D01*
X165000Y176250D02*
Y178250D01*
X119930Y107552D02*
X121048D01*
X132080Y96520D01*
X589280Y355600D02*
Y368310D01*
X590500Y369530D01*
Y371780D01*
X573990Y335990D02*
Y354890D01*
X573280Y355600D02*
X573990Y354890D01*
Y335990D02*
X574700Y335280D01*
X604560Y456500D02*
X631810D01*
X638840Y439529D02*
Y449471D01*
X617869Y432500D02*
X631810D01*
Y456500D02*
X638840Y449471D01*
X615270Y435100D02*
X617869Y432500D01*
X601980Y435100D02*
X615270D01*
X631810Y432500D02*
X638840Y439529D01*
X603860Y457200D02*
X604560Y456500D01*
X603920Y219040D02*
Y219080D01*
X583750Y239250D02*
Y241500D01*
Y239250D02*
X603920Y219080D01*
X608105Y212040D02*
X611345Y215280D01*
X596790Y212040D02*
X608105D01*
X611345Y215280D02*
X622659D01*
X579300Y213500D02*
X595330D01*
X596790Y212040D01*
X607178Y228668D02*
Y240460D01*
X604520Y241960D02*
X605678D01*
X607178Y240460D01*
X604903Y193517D02*
X616760Y181660D01*
X604903Y193517D02*
Y197737D01*
X604520Y198120D02*
X604903Y197737D01*
X616760Y181660D02*
X619760D01*
X624440Y213500D02*
X629523D01*
X635180Y219157D01*
X622659Y215280D02*
X624440Y213500D01*
X620800Y181660D02*
X622300Y180160D01*
X619760Y181660D02*
X620800D01*
X622300Y164440D02*
Y180160D01*
X619760Y200660D02*
Y208280D01*
Y200660D02*
X622760D01*
X628280Y206180D02*
X642860D01*
X622760Y200660D02*
X628280Y206180D01*
X642860Y134180D02*
Y206180D01*
X574250Y241500D02*
X583750D01*
X570250Y284000D02*
X571750Y285500D01*
Y288500D01*
X564750Y268500D02*
Y279500D01*
X569250Y284000D01*
X570250D01*
X580703Y411480D02*
X596323Y427100D01*
X607637D02*
X607637Y427100D01*
X611593D02*
X619593Y419100D01*
X624840D01*
X596323Y427100D02*
X607637D01*
X607637Y427100D02*
X611593D01*
X583360Y452700D02*
X584860Y454200D01*
X284480Y76860D02*
X287480D01*
X337820Y25400D02*
Y26520D01*
X287480Y76860D02*
X337820Y26520D01*
X571500Y398780D02*
X581000D01*
X584860Y454200D02*
Y457200D01*
X401500Y135300D02*
Y137300D01*
D71*
X424180Y275920D02*
Y285140D01*
X408400Y258420D02*
X409900Y256920D01*
X406400Y258420D02*
X408400D01*
X424180Y285140D02*
X432460D01*
X617220Y401320D02*
X622300D01*
X602980Y415560D02*
Y418100D01*
X601980Y419100D02*
X602980Y418100D01*
Y415560D02*
X617220Y401320D01*
X433365Y317660D02*
X436880Y314145D01*
X424680Y317660D02*
X433365D01*
X436880Y289560D02*
Y314145D01*
X424180Y318160D02*
X424680Y317660D01*
X266700Y350520D02*
X267687D01*
X253620Y363600D02*
X266700Y350520D01*
X353900Y259920D02*
X360680Y266700D01*
X352400Y254000D02*
X353900Y255500D01*
Y259920D01*
X354940Y326460D02*
X362940Y318460D01*
X332740Y321605D02*
X337595Y326460D01*
X354940D01*
X362940Y316460D02*
Y318460D01*
Y316460D02*
X364440Y314960D01*
X332740Y296520D02*
Y321605D01*
X227280Y365760D02*
X245720D01*
X247880Y363600D01*
X253620D01*
X590500Y398780D02*
Y407620D01*
X601980Y419100D01*
X227280Y363760D02*
Y365760D01*
X386740Y335280D02*
X386740Y335280D01*
X386740Y314960D02*
Y335280D01*
X332740Y296520D02*
X335240Y299020D01*
X344216Y300340D02*
X344757D01*
X335240Y299020D02*
X342896D01*
X344216Y300340D01*
X364440Y314960D02*
X386740D01*
X432460Y285140D02*
X436880Y289560D01*
D72*
X298425Y288315D02*
X307340Y279400D01*
X298425Y303505D02*
X347980Y353060D01*
X298425Y288315D02*
Y303505D01*
X307340Y279400D02*
X330860D01*
X333400Y276860D01*
X345440Y414020D02*
X347980Y411480D01*
Y353060D02*
Y411480D01*
X271780Y497840D02*
X287020Y482600D01*
Y411745D02*
Y482600D01*
X241840Y497840D02*
X271780D01*
X405940Y75860D02*
X406940Y76860D01*
X391160Y53340D02*
X405940Y68120D01*
X353060Y53340D02*
X391160D01*
X406940Y76860D02*
X408940D01*
X405940Y68120D02*
Y75860D01*
X91278Y201704D02*
X92079Y200903D01*
X91278Y201704D02*
X91278D01*
X99720Y127000D02*
Y128540D01*
X98720Y129540D02*
X99720Y128540D01*
X86360Y129540D02*
X98720D01*
X94640Y190040D02*
Y193040D01*
X94488Y172720D02*
X95640Y173872D01*
X101940Y207820D02*
Y209820D01*
X104640Y174760D02*
X106680Y172720D01*
X104640Y174760D02*
Y205120D01*
X94640Y190040D02*
X95640Y189040D01*
Y173872D02*
Y189040D01*
X101940Y207820D02*
X104640Y205120D01*
X99720Y127000D02*
X100720Y128000D01*
Y130000D02*
X106362Y135642D01*
X95640Y170933D02*
X106362Y160211D01*
Y135642D02*
Y160211D01*
X100720Y128000D02*
Y130000D01*
X95640Y170933D02*
Y171568D01*
X94488Y172720D02*
X95640Y171568D01*
X415742Y27122D02*
Y35183D01*
X416560Y36000D02*
Y59652D01*
X426720Y69812D01*
X414020Y25400D02*
X415742Y27122D01*
Y35183D02*
X416560Y36000D01*
X676360Y217917D02*
X679360Y220917D01*
X672860Y206180D02*
X676360Y209680D01*
X642620Y340360D02*
X679360Y303620D01*
X676360Y209680D02*
Y217917D01*
X679360Y220917D02*
Y303620D01*
X672860Y134180D02*
Y206180D01*
X612940Y152800D02*
X619300Y146440D01*
X446708Y152800D02*
X612940D01*
X619300Y146440D02*
X621300D01*
X622300Y145440D01*
X426900Y139300D02*
X440000Y152400D01*
X446308D02*
X446708Y152800D01*
X440000Y152400D02*
X446308D01*
X388620Y76860D02*
X389620Y77860D01*
X392820D01*
X396940Y81980D02*
Y85402D01*
X400620Y89082D01*
Y89540D02*
X406940Y95860D01*
X392820Y77860D02*
X396940Y81980D01*
X400620Y89082D02*
Y89540D01*
X372060Y76860D02*
X388620D01*
X119040Y229600D02*
Y241640D01*
Y229600D02*
X120040Y228600D01*
X100940Y210820D02*
X101940Y209820D01*
X49900Y296280D02*
X55880Y302260D01*
X42280Y292780D02*
X45780Y296280D01*
X49900D01*
X42280Y291780D02*
Y292780D01*
X35440Y299620D02*
X42280Y292780D01*
X35440Y299620D02*
Y309880D01*
X73660Y426720D02*
Y429260D01*
X86825Y442425D01*
X41280Y226780D02*
X42280Y227780D01*
X17780Y226780D02*
X41280D01*
X16560Y225560D02*
X17780Y226780D01*
X16560Y205740D02*
Y225560D01*
X187985Y100000D02*
X200750D01*
X183750Y95765D02*
X187985Y100000D01*
X622300Y145440D02*
X624300D01*
X426900Y137300D02*
Y139300D01*
X17780Y271780D02*
Y292780D01*
Y247780D02*
Y271780D01*
Y226780D02*
Y247780D01*
X120040Y210820D02*
Y226060D01*
X100940Y210820D02*
X120040D01*
X57900Y157480D02*
X81280D01*
X223520Y516160D02*
X241840Y497840D01*
X223520Y516160D02*
Y518160D01*
X608280Y286980D02*
Y287020D01*
Y286980D02*
X610780Y284480D01*
X632460D01*
X645160Y86691D02*
Y100222D01*
Y81280D02*
Y86691D01*
X672860Y114391D02*
Y134180D01*
X645160Y86691D02*
X672860Y114391D01*
X624300Y145440D02*
X626800Y142940D01*
Y118582D02*
Y142940D01*
Y118582D02*
X645160Y100222D01*
X632460Y284480D02*
X636756Y288776D01*
Y334496D01*
X642620Y340360D01*
X408940Y95860D02*
Y117340D01*
X426900Y135300D01*
Y137300D01*
X406940Y95860D02*
X408940D01*
X370180Y78740D02*
X372060Y76860D01*
X370180Y78740D02*
Y96520D01*
Y78740D02*
X370180Y78740D01*
X426720Y69812D02*
Y91637D01*
X408940Y95860D02*
X422497D01*
X426720Y91637D01*
X78740Y82920D02*
X79740Y81920D01*
X90800D01*
X99060Y73660D01*
X78740Y82920D02*
Y90920D01*
X66040D02*
X78740D01*
X64820Y68580D02*
Y81700D01*
X66040Y82920D01*
Y90920D01*
X363220Y25400D02*
Y43180D01*
X353060Y53340D02*
X363220Y43180D01*
X77330Y173050D02*
X94158D01*
X77000Y173380D02*
X77330Y173050D01*
X94158D02*
X94488Y172720D01*
X332740Y233680D02*
Y253340D01*
X333400Y254000D01*
Y254040D02*
Y276860D01*
Y254000D02*
Y254040D01*
D73*
X91940Y202456D02*
X93640Y200756D01*
Y194040D02*
Y200756D01*
Y194040D02*
X94640Y193040D01*
X95476Y222719D02*
X100529D01*
X106409Y228600D01*
X91940Y202456D02*
Y219184D01*
X106409Y228600D02*
X106680D01*
X91940Y219184D02*
X95476Y222719D01*
X185420Y73198D02*
X185611D01*
X189147Y47429D02*
Y69226D01*
Y47429D02*
X196188Y40388D01*
X185920Y72453D02*
X189147Y69226D01*
X185920Y72453D02*
Y72889D01*
X185611Y73198D02*
X185920Y72889D01*
X44530Y246780D02*
X53047D01*
D74*
X192990Y355550D02*
X193040Y355600D01*
X189944Y300570D02*
X192990Y303616D01*
X176770Y300570D02*
X189944D01*
X192990Y303616D02*
Y355550D01*
X152400Y297180D02*
X155640Y300420D01*
X176620D01*
D75*
X202000Y23000D02*
Y30000D01*
X193900Y38100D02*
X202000Y30000D01*
X185420Y73198D02*
Y73660D01*
Y73119D02*
Y73198D01*
X53340Y90920D02*
Y114300D01*
Y76860D02*
Y90920D01*
X71120Y40520D02*
Y44219D01*
X45560Y66080D02*
Y70080D01*
X83320Y66080D02*
Y68080D01*
X81280Y54379D02*
Y64040D01*
X71120Y44219D02*
X81280Y54379D01*
Y64040D02*
X83320Y66080D01*
Y68080D02*
X83820Y68580D01*
X45560Y66080D02*
X71120Y40520D01*
X45060Y70580D02*
X45560Y70080D01*
X71120Y35560D02*
Y40520D01*
X45060Y70580D02*
X45560Y71080D01*
X47560D02*
X53340Y76860D01*
X45560Y71080D02*
X47560D01*
X241960Y50800D02*
X241960Y50800D01*
Y27940D02*
Y50800D01*
X239020Y23000D02*
X241960Y25940D01*
X202000Y23000D02*
X239020D01*
X241960Y25940D02*
Y27940D01*
X134620Y38100D02*
X193900D01*
X133350Y36830D02*
X134620Y38100D01*
X72390Y36830D02*
X133350D01*
D76*
X25640Y454220D02*
Y526220D01*
D77*
X22860Y368300D02*
D03*
Y342900D02*
D03*
X48260Y368300D02*
D03*
X127000Y436880D02*
D03*
Y386080D02*
D03*
Y411480D02*
D03*
X624840Y419100D02*
D03*
Y444500D02*
D03*
X657860Y259080D02*
D03*
Y284480D02*
D03*
X632460Y233680D02*
D03*
Y259080D02*
D03*
Y284480D02*
D03*
D78*
X48260Y342900D02*
D03*
X127000Y462280D02*
D03*
X624840Y469900D02*
D03*
X657860Y233680D02*
D03*
D79*
X325120Y518160D02*
D03*
X350520D02*
D03*
X172720D02*
D03*
X198120D02*
D03*
X223520D02*
D03*
X248920D02*
D03*
X274320D02*
D03*
X299720D02*
D03*
X375920D02*
D03*
X574040Y25400D02*
D03*
X548640D02*
D03*
X624840D02*
D03*
X599440D02*
D03*
X523240D02*
D03*
X48260Y401320D02*
D03*
X73660D02*
D03*
X22860Y426720D02*
D03*
X48260D02*
D03*
X73660D02*
D03*
X249100Y137300D02*
D03*
X274500D02*
D03*
X299900D02*
D03*
X325300D02*
D03*
X350700D02*
D03*
X376100D02*
D03*
X401500D02*
D03*
X426900D02*
D03*
X452300D02*
D03*
X477700D02*
D03*
X503100D02*
D03*
X528500D02*
D03*
X553900D02*
D03*
X579300D02*
D03*
X249100Y213500D02*
D03*
X274500D02*
D03*
X299900D02*
D03*
X325300D02*
D03*
X350700D02*
D03*
X376100D02*
D03*
X401500D02*
D03*
X426900D02*
D03*
X452300D02*
D03*
X477700D02*
D03*
X503100D02*
D03*
X528500D02*
D03*
X553900D02*
D03*
X535940Y518160D02*
D03*
X561340D02*
D03*
X434340D02*
D03*
X459740D02*
D03*
X485140D02*
D03*
X510540D02*
D03*
X586740D02*
D03*
X132080Y96520D02*
D03*
X157480D02*
D03*
X312420Y25400D02*
D03*
X388620D02*
D03*
X414020D02*
D03*
X439420D02*
D03*
X464820D02*
D03*
X337820D02*
D03*
X363220D02*
D03*
D80*
X401320Y518160D02*
D03*
X497840Y25400D02*
D03*
X22860Y401320D02*
D03*
X579300Y213500D02*
D03*
X612140Y518160D02*
D03*
X106680Y96520D02*
D03*
X287020Y25400D02*
D03*
D81*
X25400Y35560D02*
D03*
X71120D02*
D03*
D82*
X17780Y292780D02*
D03*
Y226780D02*
D03*
D83*
X116840Y515620D02*
D03*
D84*
X134620Y38100D02*
D03*
X642620Y340360D02*
D03*
X645160Y81280D02*
D03*
D85*
X149860Y218440D02*
D03*
X119040Y241640D02*
D03*
X414020Y276860D02*
D03*
X409900Y256920D02*
D03*
X219196Y382784D02*
D03*
X195319Y400100D02*
D03*
X210820Y414020D02*
D03*
X543560Y368300D02*
D03*
X510995Y447300D02*
D03*
X345440Y414020D02*
D03*
X228643Y411930D02*
D03*
X188402Y387660D02*
D03*
X267687Y350520D02*
D03*
X152400Y238760D02*
D03*
X106680Y228600D02*
D03*
X85702Y192545D02*
D03*
X86360Y129540D02*
D03*
X83940Y214820D02*
D03*
X114507Y133213D02*
D03*
X436880Y289560D02*
D03*
X193040Y355600D02*
D03*
X130370Y263631D02*
D03*
X422910Y473920D02*
D03*
X223520Y452120D02*
D03*
X363220Y363220D02*
D03*
X287020Y411745D02*
D03*
X281940Y60960D02*
D03*
X53375Y246452D02*
D03*
X57311Y266072D02*
D03*
X63500Y246380D02*
D03*
X183750Y95765D02*
D03*
X185420Y73660D02*
D03*
X622300Y401320D02*
D03*
X121920Y287020D02*
D03*
X152400Y297180D02*
D03*
X55880Y302260D02*
D03*
X76200Y287020D02*
D03*
X106680Y172720D02*
D03*
X73660Y121920D02*
D03*
X81280Y157480D02*
D03*
X53340Y114300D02*
D03*
X12700Y452120D02*
D03*
X86825Y442425D02*
D03*
X396240Y302260D02*
D03*
X344757Y300340D02*
D03*
X554337Y304225D02*
D03*
X441960Y332740D02*
D03*
X360680Y266700D02*
D03*
X99060Y73660D02*
D03*
X330200Y66040D02*
D03*
X353060Y53340D02*
D03*
X264160Y368300D02*
D03*
X406400Y353060D02*
D03*
X592220Y471440D02*
D03*
X609600Y495300D02*
D03*
X612140Y382970D02*
D03*
X553720Y439420D02*
D03*
Y411480D02*
D03*
X591820Y434340D02*
D03*
X555120Y422780D02*
D03*
X543560Y452120D02*
D03*
X86360Y411480D02*
D03*
X106000Y410860D02*
D03*
X177800Y256540D02*
D03*
X172720Y165100D02*
D03*
X142240Y180340D02*
D03*
X119930Y107552D02*
D03*
X55880Y215900D02*
D03*
X63500Y210820D02*
D03*
X132080Y180340D02*
D03*
X603920Y219040D02*
D03*
X607178Y228668D02*
D03*
X604520Y198120D02*
D03*
X619760Y208280D02*
D03*
X117925Y325981D02*
D03*
X130725Y329015D02*
D03*
X114300Y337820D02*
D03*
X111760Y434340D02*
D03*
X73660Y320040D02*
D03*
X35560Y355600D02*
D03*
X332740Y233680D02*
D03*
X162560Y332740D02*
D03*
X160037Y341356D02*
D03*
M02*
