G04*
G04 #@! TF.GenerationSoftware,Altium Limited,Altium Designer,22.7.1 (60)*
G04*
G04 Layer_Physical_Order=2*
G04 Layer_Color=16711680*
%FSLAX44Y44*%
%MOMM*%
G71*
G04*
G04 #@! TF.SameCoordinates,93D02D30-53BF-4241-BF36-2AC50CD89F1B*
G04*
G04*
G04 #@! TF.FilePolarity,Positive*
G04*
G01*
G75*
%ADD69C,0.3810*%
%ADD70C,0.4000*%
%ADD71C,0.6000*%
%ADD72C,0.7000*%
%ADD73C,0.5000*%
%ADD77O,2.0000X1.6000*%
%ADD78R,2.0000X1.6000*%
%ADD79O,1.6000X2.0000*%
%ADD80R,1.6000X2.0000*%
%ADD81C,4.0000*%
G04:AMPARAMS|DCode=82|XSize=2mm|YSize=1.2mm|CornerRadius=0.36mm|HoleSize=0mm|Usage=FLASHONLY|Rotation=0.000|XOffset=0mm|YOffset=0mm|HoleType=Round|Shape=RoundedRectangle|*
%AMROUNDEDRECTD82*
21,1,2.0000,0.4800,0,0,0.0*
21,1,1.2800,1.2000,0,0,0.0*
1,1,0.7200,0.6400,-0.2400*
1,1,0.7200,-0.6400,-0.2400*
1,1,0.7200,-0.6400,0.2400*
1,1,0.7200,0.6400,0.2400*
%
%ADD82ROUNDEDRECTD82*%
%ADD83C,3.2000*%
%ADD84C,7.4000*%
%ADD85C,0.6000*%
G36*
X281940Y528518D02*
X280670Y527892D01*
X279363Y528895D01*
X276931Y529903D01*
X274320Y530246D01*
X271709Y529903D01*
X269277Y528895D01*
X267188Y527292D01*
X265585Y525203D01*
X264577Y522771D01*
X264234Y520160D01*
Y516160D01*
X264577Y513549D01*
X265585Y511117D01*
X267188Y509028D01*
X269277Y507425D01*
X271709Y506417D01*
X274320Y506074D01*
X276931Y506417D01*
X279363Y507425D01*
X280670Y508428D01*
X281940Y507802D01*
Y496617D01*
X223294D01*
X207423Y512488D01*
X207863Y513549D01*
X208206Y516160D01*
Y520160D01*
X207863Y522771D01*
X206855Y525203D01*
X205252Y527292D01*
X203163Y528895D01*
X200730Y529903D01*
X198120Y530246D01*
X195509Y529903D01*
X193077Y528895D01*
X190988Y527292D01*
X189385Y525203D01*
X188377Y522771D01*
X188034Y520160D01*
Y516160D01*
X188377Y513549D01*
X189385Y511117D01*
X190988Y509028D01*
X193077Y507425D01*
X195509Y506417D01*
X198120Y506074D01*
X200730Y506417D01*
X201792Y506857D01*
X216670Y491980D01*
X216183Y490807D01*
X203704D01*
X182023Y512488D01*
X182463Y513549D01*
X182806Y516160D01*
Y520160D01*
X182463Y522771D01*
X181455Y525203D01*
X179852Y527292D01*
X177763Y528895D01*
X175331Y529903D01*
X172720Y530246D01*
X170110Y529903D01*
X167677Y528895D01*
X165588Y527292D01*
X163985Y525203D01*
X162977Y522771D01*
X162634Y520160D01*
Y516160D01*
X162977Y513549D01*
X163985Y511117D01*
X165588Y509028D01*
X167677Y507425D01*
X170110Y506417D01*
X172720Y506074D01*
X175331Y506417D01*
X176392Y506857D01*
X197078Y486172D01*
X196592Y484998D01*
X154125D01*
X154125Y484998D01*
X152564Y484688D01*
X151241Y483804D01*
X139796Y472358D01*
X133000D01*
X133000Y472358D01*
X132606Y472280D01*
X115000D01*
Y452280D01*
X139000D01*
Y464202D01*
X141485D01*
X141485Y464202D01*
X143046Y464512D01*
X144369Y465396D01*
X155815Y476842D01*
X159525D01*
X159910Y475572D01*
X159437Y475255D01*
X157205Y473023D01*
X156342Y471732D01*
X156039Y470208D01*
Y344428D01*
X155798Y344188D01*
X155037Y342350D01*
Y340361D01*
X155798Y338523D01*
X157205Y337117D01*
X157816Y336864D01*
X158321Y335572D01*
X158255Y335412D01*
X157560Y333735D01*
Y331745D01*
X158321Y329908D01*
X159728Y328501D01*
X161565Y327740D01*
X162833D01*
X163359Y326470D01*
X160911Y324021D01*
X141349D01*
X135725Y329646D01*
Y330010D01*
X134964Y331848D01*
X133557Y333254D01*
X131719Y334015D01*
X130959Y334942D01*
X130982Y335056D01*
Y376255D01*
X131610Y376337D01*
X134043Y377345D01*
X136132Y378948D01*
X137735Y381037D01*
X138743Y383470D01*
X139086Y386080D01*
X138743Y388690D01*
X137735Y391123D01*
X136132Y393212D01*
X134043Y394815D01*
X131610Y395823D01*
X129000Y396166D01*
X125000D01*
X122389Y395823D01*
X119957Y394815D01*
X117868Y393212D01*
X117671Y392956D01*
X116469Y393364D01*
Y404085D01*
X117243Y404492D01*
X117703Y404563D01*
X117868Y404348D01*
X119957Y402745D01*
X122389Y401737D01*
X125000Y401394D01*
X129000D01*
X131610Y401737D01*
X134043Y402745D01*
X136132Y404348D01*
X137735Y406437D01*
X138743Y408870D01*
X139086Y411480D01*
X138743Y414090D01*
X137735Y416523D01*
X136132Y418612D01*
X134043Y420215D01*
X131610Y421223D01*
X129000Y421566D01*
X125000D01*
X122389Y421223D01*
X119957Y420215D01*
X117868Y418612D01*
X116265Y416523D01*
X115257Y414090D01*
X114914Y411480D01*
X115233Y409054D01*
X114849Y408708D01*
X114084Y408407D01*
X111000Y411491D01*
Y411855D01*
X110239Y413692D01*
X108832Y415099D01*
X106995Y415860D01*
X105006D01*
X103168Y415099D01*
X101761Y413692D01*
X101000Y411855D01*
Y409865D01*
X101761Y408028D01*
X103168Y406621D01*
X105006Y405860D01*
X105369D01*
X108506Y402724D01*
Y340225D01*
X108809Y338702D01*
X109300Y337967D01*
Y336825D01*
X110061Y334988D01*
X111468Y333581D01*
X113305Y332820D01*
X115295D01*
X117132Y333581D01*
X118539Y334988D01*
X119300Y336825D01*
Y338815D01*
X118539Y340652D01*
X117132Y342059D01*
X116469Y342334D01*
Y378796D01*
X117671Y379204D01*
X117868Y378948D01*
X119957Y377345D01*
X122389Y376337D01*
X123019Y376255D01*
Y336705D01*
X117295Y330981D01*
X116931D01*
X115093Y330220D01*
X113686Y328813D01*
X112925Y326976D01*
Y324986D01*
X113686Y323149D01*
X115093Y321742D01*
X116931Y320981D01*
X118920D01*
X120758Y321742D01*
X122164Y323149D01*
X122925Y324986D01*
Y325350D01*
X124715Y327140D01*
X126213Y326842D01*
X126486Y326183D01*
X127892Y324776D01*
X129730Y324015D01*
X130094D01*
X136885Y317225D01*
X138176Y316362D01*
X139700Y316059D01*
X162560D01*
X164084Y316362D01*
X165375Y317225D01*
X179536Y331385D01*
X180536Y331102D01*
X180806Y330907D01*
Y312420D01*
X175260D01*
X180806Y306874D01*
Y273661D01*
X179536Y273135D01*
X162835Y289835D01*
X161544Y290698D01*
X160020Y291001D01*
X125010D01*
X124752Y291259D01*
X122915Y292020D01*
X120925D01*
X119088Y291259D01*
X117681Y289852D01*
X116920Y288015D01*
Y286025D01*
X117681Y284188D01*
X119088Y282781D01*
X120925Y282020D01*
X122915D01*
X124752Y282781D01*
X125010Y283039D01*
X158371D01*
X173818Y267591D01*
Y259630D01*
X173561Y259372D01*
X172800Y257535D01*
Y255545D01*
X173561Y253708D01*
X174968Y252301D01*
X176805Y251540D01*
X178795D01*
X179451Y251812D01*
X180492Y251143D01*
X180579Y249847D01*
X169836Y239104D01*
X169157Y238087D01*
X165840Y234771D01*
X164457Y236154D01*
X163796Y236596D01*
X163015Y236751D01*
X155423D01*
X155423Y236751D01*
X154643Y236596D01*
X154203Y236302D01*
X152989Y235799D01*
X151811D01*
X150597Y236302D01*
X150157Y236596D01*
X149377Y236751D01*
X106516D01*
X105736Y236596D01*
X105074Y236154D01*
X104632Y235492D01*
X104628Y235473D01*
X99424Y230268D01*
X98435Y230171D01*
X88616Y239989D01*
X87795Y241218D01*
X62311Y266702D01*
Y267066D01*
X61550Y268904D01*
X60143Y270311D01*
X58305Y271072D01*
X56316D01*
X54479Y270311D01*
X53072Y268904D01*
X52311Y267066D01*
Y265077D01*
X53072Y263239D01*
X54479Y261833D01*
X56316Y261072D01*
X56680D01*
X65353Y252399D01*
X64633Y251322D01*
X64495Y251380D01*
X62505D01*
X60668Y250619D01*
X59261Y249212D01*
X58500Y247375D01*
Y245385D01*
X59261Y243548D01*
X59518Y243290D01*
Y225169D01*
X55249Y220900D01*
X54885D01*
X53048Y220139D01*
X51641Y218732D01*
X50880Y216895D01*
Y214905D01*
X51641Y213068D01*
X53048Y211661D01*
X54885Y210900D01*
X56875D01*
X57444Y211136D01*
X58500Y210430D01*
Y209825D01*
X59261Y207988D01*
X60668Y206581D01*
X62505Y205820D01*
X64495D01*
X66332Y206581D01*
X66590Y206838D01*
X68580D01*
X70104Y207142D01*
X71395Y208005D01*
X74969Y211578D01*
X75247D01*
X75273Y211561D01*
X76797Y211257D01*
X80431D01*
X81108Y210581D01*
X82945Y209820D01*
X84935D01*
X86772Y210581D01*
X88179Y211988D01*
X88940Y213825D01*
Y215814D01*
X88179Y217652D01*
X86772Y219059D01*
X84935Y219820D01*
X82945D01*
X81498Y219221D01*
X78027D01*
X78000Y219238D01*
X76476Y219541D01*
X73320D01*
X71796Y219238D01*
X70505Y218375D01*
X67588Y215458D01*
X66332Y215059D01*
X64495Y215820D01*
X63227D01*
X62701Y217090D01*
X66315Y220705D01*
X67178Y221996D01*
X67481Y223520D01*
Y243290D01*
X67739Y243548D01*
X68500Y245385D01*
Y247375D01*
X68443Y247513D01*
X69519Y248233D01*
X81344Y236408D01*
X82165Y235180D01*
X101004Y216340D01*
X102296Y215477D01*
X102647Y215407D01*
X123607Y194447D01*
X123081Y193176D01*
X91293D01*
X90540Y193930D01*
X89941Y195377D01*
X88534Y196784D01*
X86696Y197545D01*
X84707D01*
X82869Y196784D01*
X81463Y195377D01*
X80702Y193540D01*
Y191550D01*
X81463Y189713D01*
X82869Y188306D01*
X84707Y187545D01*
X85664D01*
X86829Y186380D01*
X88121Y185517D01*
X89644Y185214D01*
X122392D01*
X123008Y184598D01*
X123457Y183925D01*
X127080Y180302D01*
Y179345D01*
X127841Y177508D01*
X129248Y176101D01*
X131085Y175340D01*
X133075D01*
X134912Y176101D01*
X136319Y177508D01*
X136473Y177879D01*
X137847D01*
X138001Y177508D01*
X139408Y176101D01*
X141245Y175340D01*
X143235D01*
X144509Y175868D01*
X145779Y175149D01*
Y141387D01*
X144092Y139700D01*
X134620D01*
X103440Y108520D01*
X96680D01*
Y101760D01*
X90698Y95778D01*
X89428Y96304D01*
Y124677D01*
X90325Y125575D01*
X91541Y127394D01*
X91968Y129540D01*
X91541Y131686D01*
X90325Y133505D01*
X88506Y134721D01*
X86360Y135148D01*
X84214Y134721D01*
X82395Y133505D01*
X79855Y130965D01*
X78639Y129146D01*
X78212Y127000D01*
Y93980D01*
X78639Y91834D01*
X79855Y90015D01*
X81674Y88799D01*
X82452Y88644D01*
X82720Y88591D01*
X91547Y79765D01*
X91574Y79682D01*
X91553Y78988D01*
X91316Y78200D01*
X91268Y78168D01*
X90826Y77506D01*
X90300Y76236D01*
X90145Y75456D01*
X90300Y74675D01*
X90742Y74014D01*
X92782Y71974D01*
Y70828D01*
X92937Y70047D01*
X93379Y69386D01*
X94041Y68944D01*
X94821Y68788D01*
X97755D01*
X98065Y68660D01*
X100055D01*
X100365Y68788D01*
X113315D01*
X113551Y68835D01*
X113791Y68845D01*
X113937Y68912D01*
X114095Y68944D01*
X114295Y69077D01*
X114514Y69178D01*
X115248Y69712D01*
X118364Y71299D01*
X119545Y71767D01*
X120705Y72247D01*
X122882Y73149D01*
X123515Y73355D01*
X128509Y74554D01*
X129167Y74658D01*
X130650Y74775D01*
X130647Y74807D01*
X132990Y75061D01*
X137529D01*
X143275Y74151D01*
X148808Y72353D01*
X149229Y72138D01*
X149307Y72116D01*
X149375Y72071D01*
X149688Y72009D01*
X149995Y71922D01*
X150076Y71932D01*
X150155Y71916D01*
X150468Y71978D01*
X150785Y72016D01*
X150856Y72055D01*
X150935Y72071D01*
X151201Y72249D01*
X151480Y72405D01*
X151530Y72468D01*
X151597Y72513D01*
X157480Y78396D01*
X196678Y39198D01*
X197340Y38756D01*
X198120Y38601D01*
X213360D01*
Y6869D01*
X43180D01*
Y12700D01*
X38924Y16956D01*
X39048Y18220D01*
X39424Y18471D01*
X42488Y21536D01*
X44896Y25139D01*
X46554Y29143D01*
X47400Y33393D01*
Y37727D01*
X46554Y41977D01*
X44896Y45981D01*
X42488Y49584D01*
X39424Y52649D01*
X38100Y53533D01*
Y96520D01*
Y101600D01*
Y124460D01*
X33020D01*
X6869Y150611D01*
Y314960D01*
X10160D01*
X6869Y318251D01*
Y419842D01*
X8135Y419985D01*
X8577Y419324D01*
X13408Y414493D01*
X12922Y413320D01*
X12860D01*
Y389320D01*
X32860D01*
Y412666D01*
X33488Y413086D01*
X33488Y413086D01*
X38361Y417959D01*
X38804Y418621D01*
X40147Y418866D01*
X41128Y417588D01*
X43217Y415985D01*
X45649Y414977D01*
X47238Y414768D01*
X48057Y414660D01*
Y413380D01*
X47238Y413272D01*
X45649Y413063D01*
X43217Y412055D01*
X41128Y410452D01*
X39525Y408363D01*
X38517Y405930D01*
X38174Y403320D01*
Y399320D01*
X38517Y396710D01*
X39525Y394277D01*
X41128Y392188D01*
X43217Y390585D01*
X45649Y389577D01*
X48260Y389234D01*
X50870Y389577D01*
X53303Y390585D01*
X55392Y392188D01*
X56995Y394277D01*
X58003Y396710D01*
X58346Y399320D01*
Y403320D01*
X58003Y405930D01*
X56995Y408363D01*
X55392Y410452D01*
X53303Y412055D01*
X50870Y413063D01*
X49282Y413272D01*
X48463Y413380D01*
Y414660D01*
X49282Y414768D01*
X50870Y414977D01*
X53303Y415985D01*
X55392Y417588D01*
X56995Y419677D01*
X58003Y422109D01*
X58346Y424720D01*
Y428720D01*
X58003Y431330D01*
X56995Y433763D01*
X56319Y434644D01*
X56881Y435783D01*
X69504D01*
X70284Y435938D01*
X71582Y436476D01*
X72841Y436642D01*
X74479D01*
X75738Y436476D01*
X77675Y435674D01*
X78682Y434901D01*
X79841Y433742D01*
X80614Y432735D01*
X81416Y430798D01*
X81707Y428586D01*
Y424854D01*
X81416Y422642D01*
X80552Y420557D01*
X80397Y419776D01*
Y412191D01*
X79258Y411629D01*
X78703Y412055D01*
X76270Y413063D01*
X73660Y413406D01*
X71049Y413063D01*
X68617Y412055D01*
X66528Y410452D01*
X64925Y408363D01*
X63917Y405930D01*
X63574Y403320D01*
Y399320D01*
X63917Y396710D01*
X64925Y394277D01*
X66528Y392188D01*
X68617Y390585D01*
X71049Y389577D01*
X73062Y389313D01*
X73530Y387984D01*
X72038Y386492D01*
X64471D01*
X62947Y386189D01*
X61655Y385326D01*
X53932Y377603D01*
X52870Y378043D01*
X50260Y378386D01*
X46260D01*
X43650Y378043D01*
X41217Y377035D01*
X39128Y375432D01*
X37525Y373343D01*
X36517Y370910D01*
X36308Y369322D01*
X36200Y368503D01*
X34920D01*
X34812Y369322D01*
X34603Y370910D01*
X33595Y373343D01*
X31992Y375432D01*
X29903Y377035D01*
X27471Y378043D01*
X24860Y378386D01*
X20860D01*
X18249Y378043D01*
X15817Y377035D01*
X13728Y375432D01*
X12125Y373343D01*
X11117Y370910D01*
X10774Y368300D01*
X11117Y365690D01*
X12125Y363257D01*
X13728Y361168D01*
X15817Y359565D01*
X18249Y358557D01*
X20860Y358214D01*
X24860D01*
X27471Y358557D01*
X29903Y359565D01*
X31992Y361168D01*
X33595Y363257D01*
X34603Y365690D01*
X34812Y367278D01*
X34920Y368097D01*
X36200D01*
X36308Y367278D01*
X36517Y365690D01*
X37525Y363257D01*
X38829Y361558D01*
X38843Y361515D01*
X38610Y360382D01*
X38428Y360105D01*
X38019Y359994D01*
X36555Y360600D01*
X34565D01*
X32728Y359839D01*
X31321Y358432D01*
X30560Y356595D01*
Y354605D01*
X31321Y352768D01*
X32728Y351361D01*
X34565Y350600D01*
X36260D01*
Y332900D01*
X58183D01*
Y331535D01*
X58487Y330011D01*
X59350Y328720D01*
X68660Y319409D01*
Y319045D01*
X69421Y317208D01*
X70828Y315801D01*
X72665Y315040D01*
X74655D01*
X76492Y315801D01*
X77899Y317208D01*
X78660Y319045D01*
Y321035D01*
X77899Y322872D01*
X76492Y324279D01*
X74655Y325040D01*
X74291D01*
X66146Y333184D01*
Y352518D01*
X65843Y354041D01*
X64980Y355333D01*
X61898Y358415D01*
X60606Y359278D01*
X59082Y359581D01*
X57300D01*
X56892Y360784D01*
X57392Y361168D01*
X58995Y363257D01*
X60003Y365690D01*
X60346Y368300D01*
X60003Y370910D01*
X59563Y371972D01*
X66120Y378529D01*
X73687D01*
X75210Y378832D01*
X76502Y379695D01*
X96080Y399273D01*
X96943Y400565D01*
X97247Y402089D01*
Y414196D01*
X112391Y429340D01*
X112755D01*
X114592Y430101D01*
X115387Y430896D01*
X116998Y430872D01*
X117013Y430862D01*
X117868Y429748D01*
X119957Y428145D01*
X122389Y427137D01*
X125000Y426794D01*
X129000D01*
X131610Y427137D01*
X134043Y428145D01*
X136132Y429748D01*
X137735Y431837D01*
X138743Y434269D01*
X139086Y436880D01*
X138743Y439491D01*
X137735Y441923D01*
X136132Y444012D01*
X134043Y445615D01*
X131610Y446623D01*
X129000Y446966D01*
X125000D01*
X122389Y446623D01*
X119957Y445615D01*
X117868Y444012D01*
X116265Y441923D01*
X115287Y439561D01*
X115227Y439477D01*
X113895Y438868D01*
X112755Y439340D01*
X110765D01*
X108928Y438579D01*
X107521Y437172D01*
X106760Y435335D01*
Y434971D01*
X94226Y422436D01*
X93052Y422922D01*
Y434313D01*
X93052Y434314D01*
X92897Y435094D01*
X92455Y435756D01*
X92455Y435756D01*
X89320Y438891D01*
X88658Y439333D01*
X87878Y439488D01*
X87878D01*
X87757Y439464D01*
X86236D01*
X85243Y439876D01*
X84276Y440843D01*
X83864Y441836D01*
Y443357D01*
X83888Y443478D01*
Y443478D01*
X83733Y444258D01*
X83291Y444920D01*
X83291Y444920D01*
X80857Y447354D01*
X80195Y447796D01*
X79415Y447951D01*
X32696D01*
X32514Y448134D01*
X31852Y448576D01*
X31072Y448731D01*
X30291Y448576D01*
X29630Y448134D01*
X25061Y443565D01*
X19083D01*
X18303Y443410D01*
X17641Y442968D01*
X11114Y436441D01*
X10526Y436048D01*
X10084Y435386D01*
X9929Y434606D01*
Y431913D01*
X8718Y430702D01*
X8685Y430653D01*
X8638Y430617D01*
X8465Y430323D01*
X8276Y430040D01*
X8264Y429982D01*
X8234Y429931D01*
X8093Y429526D01*
X6869Y429759D01*
Y495300D01*
X60960D01*
X101600Y535940D01*
X281940D01*
Y528518D01*
D02*
G37*
G36*
X645160Y396240D02*
X652613Y388787D01*
Y388787D01*
X683260Y358140D01*
Y93980D01*
X680720Y91440D01*
Y58420D01*
X678180D01*
X652780Y33020D01*
X633132D01*
X631972Y34532D01*
X629883Y36135D01*
X627450Y37143D01*
X624840Y37486D01*
X622229Y37143D01*
X619797Y36135D01*
X617708Y34532D01*
X616548Y33020D01*
X612140D01*
Y35560D01*
X556260Y91440D01*
Y125524D01*
X556511Y125557D01*
X557572Y125997D01*
X562990Y120580D01*
X564281Y119717D01*
X565805Y119413D01*
X584231D01*
X585755Y119717D01*
X587047Y120580D01*
X599830Y133363D01*
X600693Y134655D01*
X600997Y136179D01*
Y192913D01*
X602267Y193641D01*
X603525Y193120D01*
X605515D01*
X607352Y193881D01*
X608759Y195288D01*
X609520Y197125D01*
Y199115D01*
X608759Y200952D01*
X608298Y201413D01*
Y213699D01*
X609568Y213824D01*
X609701Y213156D01*
X610585Y211833D01*
X614760Y207658D01*
Y207285D01*
X615521Y205448D01*
X616928Y204041D01*
X618765Y203280D01*
X620755D01*
X622592Y204041D01*
X623999Y205448D01*
X624760Y207285D01*
Y209275D01*
X623999Y211112D01*
X622592Y212519D01*
X620755Y213280D01*
X620674D01*
X617547Y216406D01*
Y222231D01*
X617547Y222231D01*
X617237Y223791D01*
X616353Y225115D01*
X616353Y225115D01*
X612178Y229289D01*
Y229662D01*
X611417Y231500D01*
X610010Y232907D01*
X608173Y233668D01*
X606184D01*
X604346Y232907D01*
X602939Y231500D01*
X602178Y229662D01*
X600997Y229875D01*
Y264505D01*
X602267Y264890D01*
X602435Y264639D01*
X622714Y244360D01*
X624005Y243497D01*
X624589Y243381D01*
X624906Y242023D01*
X623328Y240812D01*
X621725Y238723D01*
X620717Y236290D01*
X620374Y233680D01*
X620717Y231070D01*
X621725Y228637D01*
X623328Y226548D01*
X625417Y224945D01*
X627850Y223937D01*
X630460Y223594D01*
X634460D01*
X637071Y223937D01*
X639503Y224945D01*
X641592Y226548D01*
X643195Y228637D01*
X644203Y231070D01*
X644546Y233680D01*
X644203Y236290D01*
X643195Y238723D01*
X642551Y239562D01*
X643508Y240401D01*
X645860Y238049D01*
Y223680D01*
X669860D01*
Y243680D01*
X651491D01*
X645180Y249990D01*
X643889Y250853D01*
X642516Y251126D01*
X642226Y251592D01*
X641959Y252426D01*
X643195Y254037D01*
X644203Y256469D01*
X644412Y258058D01*
X644520Y258877D01*
X645800D01*
X645908Y258058D01*
X646117Y256469D01*
X647125Y254037D01*
X648728Y251948D01*
X650817Y250345D01*
X653250Y249337D01*
X655860Y248994D01*
X659860D01*
X662470Y249337D01*
X664903Y250345D01*
X666992Y251948D01*
X668595Y254037D01*
X669603Y256469D01*
X669946Y259080D01*
X669603Y261691D01*
X668595Y264123D01*
X666992Y266212D01*
X664903Y267815D01*
X662470Y268823D01*
X659860Y269166D01*
X655860D01*
X653250Y268823D01*
X650817Y267815D01*
X648728Y266212D01*
X647125Y264123D01*
X646117Y261691D01*
X645908Y260102D01*
X645800Y259283D01*
X644520D01*
X644412Y260102D01*
X644203Y261691D01*
X643195Y264123D01*
X641592Y266212D01*
X639503Y267815D01*
X637071Y268823D01*
X634460Y269166D01*
X630460D01*
X627850Y268823D01*
X626788Y268383D01*
X615042Y280129D01*
Y314072D01*
X614738Y315595D01*
X613875Y316887D01*
X605696Y325066D01*
Y396802D01*
X606792Y397898D01*
X608062Y397371D01*
Y385963D01*
X607901Y385802D01*
X607140Y383965D01*
Y381975D01*
X607901Y380138D01*
X609308Y378731D01*
X611145Y377970D01*
X613135D01*
X614972Y378731D01*
X616379Y380138D01*
X617140Y381975D01*
Y383965D01*
X616379Y385802D01*
X616218Y385963D01*
Y410140D01*
X617357Y410702D01*
X617797Y410365D01*
X620229Y409357D01*
X622840Y409014D01*
X626840D01*
X629450Y409357D01*
X631883Y410365D01*
X633972Y411968D01*
X635575Y414057D01*
X636583Y416489D01*
X636926Y419100D01*
X636583Y421711D01*
X635575Y424143D01*
X633972Y426232D01*
X631883Y427835D01*
X629450Y428843D01*
X626840Y429186D01*
X622840D01*
X620229Y428843D01*
X617797Y427835D01*
X616188Y426601D01*
X614918Y427211D01*
Y436389D01*
X616188Y436999D01*
X617797Y435765D01*
X620229Y434757D01*
X622840Y434414D01*
X626840D01*
X629450Y434757D01*
X631883Y435765D01*
X633972Y437368D01*
X635575Y439457D01*
X636583Y441889D01*
X636926Y444500D01*
X645160D01*
Y396240D01*
D02*
G37*
G36*
X274988Y370863D02*
X368012D01*
X371051Y367824D01*
Y352364D01*
X368277Y349589D01*
X365105Y352760D01*
X272171D01*
X271925Y353352D01*
X270519Y354759D01*
X268681Y355520D01*
X266692D01*
X264854Y354759D01*
X263448Y353352D01*
X262122Y353469D01*
X229533Y386059D01*
X225559D01*
Y391160D01*
X225559Y391160D01*
X225404Y391940D01*
X224962Y392602D01*
X224962Y392602D01*
X219882Y397682D01*
X219220Y398124D01*
X218440Y398279D01*
X208280D01*
X207500Y398124D01*
X206838Y397682D01*
X206838Y397682D01*
X204298Y395142D01*
X203856Y394480D01*
X203701Y393700D01*
Y386059D01*
X199669D01*
X187248Y398479D01*
X190816Y402047D01*
X191720Y402932D01*
X192157D01*
X197218Y407993D01*
X225509D01*
X225811Y407691D01*
X227648Y406930D01*
X229637D01*
X231475Y407691D01*
X231777Y407993D01*
X237857D01*
X274988Y370863D01*
D02*
G37*
G36*
X31851Y445912D02*
X79415D01*
X81849Y443478D01*
X81825Y443420D01*
Y441430D01*
X82586Y439593D01*
X83993Y438186D01*
X85830Y437425D01*
X87820D01*
X87878Y437449D01*
X91013Y434314D01*
Y419224D01*
X90450Y418660D01*
X89587Y417369D01*
X89536Y417116D01*
X89284Y415845D01*
Y405756D01*
X83426D01*
X83403Y405930D01*
X82436Y408264D01*
Y419776D01*
X83403Y422109D01*
X83746Y424720D01*
Y428720D01*
X83403Y431330D01*
X82395Y433763D01*
X80792Y435852D01*
X78703Y437455D01*
X76270Y438463D01*
X73660Y438806D01*
X71049Y438463D01*
X69504Y437822D01*
X52416D01*
X50870Y438463D01*
X48260Y438806D01*
X45649Y438463D01*
X43398Y437530D01*
X36920D01*
Y419401D01*
X32046Y414528D01*
X16257D01*
X10019Y420766D01*
Y428856D01*
X10160Y429260D01*
X11968Y431068D01*
Y434606D01*
X12163D01*
X19083Y441526D01*
X26003D01*
Y441623D01*
X31072Y446692D01*
X31851Y445912D01*
D02*
G37*
G36*
X223520Y391160D02*
Y390959D01*
Y386059D01*
X223675Y385278D01*
X224117Y384617D01*
X224779Y384174D01*
X225559Y384019D01*
X228688D01*
X260680Y352027D01*
X260937Y351855D01*
X261179Y351661D01*
X261266Y351636D01*
X261341Y351585D01*
X261645Y351525D01*
X261942Y351438D01*
X263269Y351321D01*
X263359Y351331D01*
X263448Y351313D01*
X263752Y351374D01*
X264060Y351407D01*
X264139Y351451D01*
X264228Y351468D01*
X264486Y351640D01*
X264757Y351789D01*
X264814Y351860D01*
X264890Y351910D01*
X266010Y353030D01*
X267098Y353481D01*
X268276D01*
X269364Y353030D01*
X270197Y352197D01*
X270287Y351980D01*
X270729Y351318D01*
X271390Y350876D01*
X272171Y350721D01*
X298261D01*
X298747Y349547D01*
X292100Y342900D01*
X306070Y328930D01*
X327861Y350721D01*
X364261D01*
X366835Y348147D01*
X367496Y347705D01*
X368277Y347549D01*
X369057Y347705D01*
X369719Y348147D01*
X372493Y350922D01*
X372935Y351583D01*
X373091Y352364D01*
Y367824D01*
X372935Y368604D01*
X372493Y369266D01*
X372493Y369266D01*
X369454Y372305D01*
X368793Y372747D01*
X368012Y372902D01*
X351701D01*
X351215Y374075D01*
X370840Y393700D01*
X487680D01*
X517487Y363893D01*
X517001Y362719D01*
X398780D01*
X398000Y362564D01*
X397338Y362122D01*
X396896Y361460D01*
X396741Y360680D01*
Y345440D01*
X396896Y344660D01*
X397338Y343998D01*
X398000Y343556D01*
X398780Y343401D01*
X530860D01*
X530860Y343401D01*
X531640Y343556D01*
X532302Y343998D01*
X532302Y343998D01*
X534842Y346538D01*
X535940Y345440D01*
Y321578D01*
X458889D01*
X446960Y333508D01*
Y333735D01*
X446199Y335572D01*
X444792Y336979D01*
X442955Y337740D01*
X440965D01*
X439128Y336979D01*
X437721Y335572D01*
X436960Y333735D01*
Y331745D01*
X437721Y329908D01*
X439128Y328501D01*
X440965Y327740D01*
X441192D01*
X454316Y314616D01*
X455639Y313732D01*
X457200Y313422D01*
X535940D01*
Y223997D01*
X534670Y223370D01*
X533543Y224235D01*
X531110Y225243D01*
X528500Y225586D01*
X525890Y225243D01*
X523457Y224235D01*
X521368Y222632D01*
X519765Y220543D01*
X518757Y218111D01*
X518414Y215500D01*
Y211500D01*
X518757Y208890D01*
X519765Y206457D01*
X521368Y204368D01*
X523457Y202765D01*
X525890Y201757D01*
X528500Y201414D01*
X531110Y201757D01*
X533543Y202765D01*
X534670Y203630D01*
X535940Y203003D01*
Y182337D01*
X532566Y178964D01*
X521715D01*
X521715Y178964D01*
X520154Y178653D01*
X518831Y177769D01*
X486894Y145832D01*
X486541Y145634D01*
X485471Y145599D01*
X484832Y146432D01*
X482743Y148035D01*
X480311Y149043D01*
X477700Y149386D01*
X475089Y149043D01*
X472657Y148035D01*
X470568Y146432D01*
X468965Y144343D01*
X467957Y141910D01*
X467614Y139300D01*
Y135300D01*
X467957Y132690D01*
X468965Y130257D01*
X470568Y128168D01*
X472657Y126565D01*
X475089Y125557D01*
X477700Y125214D01*
X480311Y125557D01*
X482743Y126565D01*
X484352Y127799D01*
X485622Y127189D01*
Y125629D01*
X425031Y65038D01*
X371380D01*
X371380Y65038D01*
X369819Y64728D01*
X368496Y63844D01*
X368496Y63844D01*
X362446Y57793D01*
X361273Y58280D01*
Y62407D01*
X361273Y62407D01*
X361117Y63187D01*
X360675Y63849D01*
X349422Y75102D01*
X348760Y75544D01*
X347980Y75699D01*
X317500D01*
X317500Y75699D01*
X316720Y75544D01*
X316058Y75102D01*
X316058Y75102D01*
X310978Y70022D01*
X310536Y69360D01*
X310381Y68580D01*
Y68079D01*
X309880D01*
X309100Y67924D01*
X308438Y67482D01*
X293795Y52839D01*
X290721D01*
X290525Y53434D01*
X290510Y54109D01*
X291002Y54438D01*
X291444Y55100D01*
X291599Y55880D01*
Y66040D01*
X291444Y66820D01*
X291002Y67482D01*
X283382Y75102D01*
X282720Y75544D01*
X281940Y75699D01*
X277705D01*
X269240Y84164D01*
Y125280D01*
X270510Y126129D01*
X271889Y125557D01*
X274500Y125214D01*
X277111Y125557D01*
X279543Y126565D01*
X281632Y128168D01*
X283235Y130257D01*
X284243Y132690D01*
X284586Y135300D01*
Y139300D01*
X284243Y141910D01*
X283235Y144343D01*
X281632Y146432D01*
X279543Y148035D01*
X277111Y149043D01*
X274500Y149386D01*
X271889Y149043D01*
X270510Y148471D01*
X269240Y149320D01*
Y201480D01*
X270510Y202329D01*
X271889Y201757D01*
X274500Y201414D01*
X277111Y201757D01*
X279543Y202765D01*
X281632Y204368D01*
X283235Y206457D01*
X284243Y208890D01*
X284586Y211500D01*
Y215500D01*
X284243Y218111D01*
X283235Y220543D01*
X281632Y222632D01*
X279543Y224235D01*
X277111Y225243D01*
X274500Y225586D01*
X271889Y225243D01*
X269457Y224235D01*
X267368Y222632D01*
X265976Y220818D01*
X264606Y220750D01*
X234180Y285949D01*
X234862Y287020D01*
X264160D01*
X293370Y316230D01*
X279400Y330200D01*
X261620Y312420D01*
X195079D01*
Y350600D01*
X194924Y351380D01*
X194482Y352042D01*
X193820Y352484D01*
X193040Y352639D01*
X192451D01*
X191363Y353090D01*
X190530Y353923D01*
X190118Y354916D01*
Y356283D01*
X190491Y357183D01*
X191285Y357977D01*
X191285Y357977D01*
X191379Y358117D01*
X192451Y358561D01*
X193040D01*
X193820Y358716D01*
X194482Y359158D01*
X194924Y359820D01*
X195079Y360600D01*
Y383540D01*
X194924Y384320D01*
X194482Y384982D01*
X194482Y384982D01*
X193225Y386239D01*
X193402Y386665D01*
Y387646D01*
X194672Y388172D01*
X198227Y384617D01*
X198889Y384174D01*
X199669Y384019D01*
X203701D01*
X204481Y384174D01*
X205143Y384617D01*
X205585Y385278D01*
X205740Y386059D01*
Y393499D01*
Y393700D01*
X205882Y393842D01*
X205882Y393842D01*
X208138Y396098D01*
X208138Y396098D01*
X208280Y396240D01*
X218440D01*
X223520Y391160D01*
D02*
G37*
G36*
X206838Y428952D02*
X207142Y427428D01*
X208005Y426137D01*
X210236Y423905D01*
X211528Y423042D01*
X213052Y422738D01*
X281940D01*
Y414042D01*
X281839Y413891D01*
X281412Y411745D01*
X281839Y409599D01*
X281940Y409448D01*
Y373380D01*
X281742Y372902D01*
X275832D01*
X239299Y409435D01*
X238637Y409877D01*
X237857Y410033D01*
X231777D01*
X230997Y409877D01*
X230335Y409435D01*
X230320Y409420D01*
X229232Y408969D01*
X228054D01*
X226966Y409420D01*
X226951Y409435D01*
X226289Y409877D01*
X225509Y410033D01*
X197218D01*
X196438Y409877D01*
X195776Y409435D01*
X195776Y409435D01*
X191213Y404872D01*
X190958Y404824D01*
X190950Y404818D01*
X190939Y404816D01*
X190616Y404600D01*
X190292Y404389D01*
X189389Y403504D01*
X189383Y403495D01*
X189374Y403489D01*
X185807Y399921D01*
X185364Y399260D01*
X185209Y398479D01*
X185364Y397699D01*
X185807Y397038D01*
X185807Y397037D01*
X188914Y393930D01*
X188388Y392660D01*
X187407D01*
X185569Y391899D01*
X184163Y390492D01*
X183402Y388655D01*
Y386665D01*
X183949Y385344D01*
X183296Y384146D01*
X183205Y384074D01*
X180956D01*
Y452494D01*
X181681Y453218D01*
X206838D01*
Y428952D01*
D02*
G37*
G36*
X549642Y364222D02*
X530860Y345440D01*
X398780D01*
Y360680D01*
X523240D01*
X535940Y373380D01*
X549642D01*
Y364222D01*
D02*
G37*
G36*
X193040Y383540D02*
Y360600D01*
X192045D01*
X190208Y359839D01*
X188801Y358432D01*
X188040Y356595D01*
Y354605D01*
X188801Y352768D01*
X190208Y351361D01*
X192045Y350600D01*
X193040D01*
Y243840D01*
X185420Y236220D01*
X180340D01*
Y170180D01*
X276860Y73660D01*
X281940D01*
X289560Y66040D01*
Y55880D01*
X283015D01*
X282935Y55960D01*
X281940Y54965D01*
Y53340D01*
X271780D01*
X165100Y160020D01*
Y218738D01*
X160318Y223520D01*
X111097D01*
X108870Y221293D01*
X108635Y221529D01*
X107786D01*
X107345Y221970D01*
X106053Y222833D01*
X106046Y222835D01*
Y223647D01*
X100866Y228827D01*
X106516Y234477D01*
Y234712D01*
X149377D01*
X149568Y234521D01*
X151405Y233760D01*
X153395D01*
X155232Y234521D01*
X155423Y234712D01*
X163015D01*
X165840Y231887D01*
X182845Y248892D01*
Y360715D01*
X180956Y362603D01*
Y382035D01*
X186455D01*
X190500Y386080D01*
X193040Y383540D01*
D02*
G37*
G36*
X535914Y169930D02*
X535940Y169847D01*
Y147797D01*
X534670Y147170D01*
X533543Y148035D01*
X531110Y149043D01*
X528500Y149386D01*
X525890Y149043D01*
X523457Y148035D01*
X521368Y146432D01*
X519765Y144343D01*
X518757Y141910D01*
X518414Y139300D01*
Y135300D01*
X518757Y132690D01*
X519765Y130257D01*
X521368Y128168D01*
X523457Y126565D01*
X525890Y125557D01*
X528500Y125214D01*
X531110Y125557D01*
X533543Y126565D01*
X534670Y127430D01*
X535940Y126803D01*
Y25400D01*
X534596Y24056D01*
X533326Y24582D01*
Y27400D01*
X532983Y30010D01*
X531975Y32443D01*
X530372Y34532D01*
X528283Y36135D01*
X525850Y37143D01*
X523240Y37486D01*
X520630Y37143D01*
X518197Y36135D01*
X516108Y34532D01*
X514505Y32443D01*
X513497Y30010D01*
X513154Y27400D01*
Y23400D01*
X513497Y20789D01*
X514505Y18357D01*
X516108Y16268D01*
X518197Y14665D01*
X520630Y13657D01*
X522195Y13451D01*
X522650Y12110D01*
X517409Y6869D01*
X305551D01*
X297020Y15400D01*
Y37400D01*
X297020D01*
X297187Y38601D01*
X302260D01*
X303040Y38756D01*
X303702Y39198D01*
X303702Y39198D01*
X320885Y56381D01*
X339515D01*
X350274Y45622D01*
X349376Y44724D01*
X341395Y36743D01*
X340430Y37143D01*
X337820Y37486D01*
X335210Y37143D01*
X332777Y36135D01*
X330688Y34532D01*
X329085Y32443D01*
X328077Y30010D01*
X327734Y27400D01*
Y23400D01*
X328077Y20789D01*
X329085Y18357D01*
X330688Y16268D01*
X332777Y14665D01*
X335210Y13657D01*
X337820Y13314D01*
X340430Y13657D01*
X342863Y14665D01*
X344952Y16268D01*
X346555Y18357D01*
X347563Y20789D01*
X347906Y23400D01*
Y27400D01*
X347563Y30010D01*
X347163Y30975D01*
X373069Y56882D01*
X426720D01*
X426720Y56882D01*
X428281Y57192D01*
X429604Y58076D01*
X492584Y121056D01*
X493468Y122379D01*
X493778Y123940D01*
Y128935D01*
X495048Y129366D01*
X495968Y128168D01*
X498057Y126565D01*
X500490Y125557D01*
X503100Y125214D01*
X505710Y125557D01*
X508143Y126565D01*
X510232Y128168D01*
X511835Y130257D01*
X512843Y132690D01*
X513186Y135300D01*
Y139300D01*
X512843Y141910D01*
X511835Y144343D01*
X510232Y146432D01*
X508143Y148035D01*
X505710Y149043D01*
X503700Y149307D01*
X503234Y150637D01*
X523404Y170807D01*
X534256D01*
X534256Y170807D01*
X534670Y170889D01*
X535914Y169930D01*
D02*
G37*
G36*
X213360Y108876D02*
Y52839D01*
X209801D01*
X209020Y52684D01*
X208754Y52506D01*
X199602Y61659D01*
Y66040D01*
Y66198D01*
X199446Y66978D01*
X199004Y67640D01*
X193032Y73612D01*
X192864Y73724D01*
X192723Y73866D01*
X192537Y73943D01*
X192370Y74054D01*
X192173Y74094D01*
X191987Y74170D01*
X191787D01*
X191590Y74210D01*
X191393Y74170D01*
X191192D01*
X189694Y73872D01*
X189508Y73796D01*
X189311Y73756D01*
X189144Y73645D01*
X188959Y73568D01*
X188817Y73426D01*
X188650Y73314D01*
X188538Y73147D01*
X188396Y73005D01*
X188319Y72820D01*
X188208Y72653D01*
X187930Y71983D01*
X187097Y71150D01*
X186009Y70699D01*
X184831D01*
X183838Y71111D01*
X182871Y72077D01*
X182459Y73071D01*
Y74249D01*
X182978Y75502D01*
X183226Y75872D01*
X183381Y76653D01*
Y82418D01*
X183226Y83199D01*
X182784Y83860D01*
X177588Y89056D01*
Y95072D01*
Y98791D01*
X177912Y99275D01*
X178067Y100055D01*
X177912Y100835D01*
X177470Y101497D01*
X177470Y101497D01*
X168477Y110490D01*
X169003Y111760D01*
X210476D01*
X213360Y108876D01*
D02*
G37*
G36*
X176028Y100055D02*
X175549Y99576D01*
Y88211D01*
X181342Y82418D01*
Y76653D01*
X181181Y76492D01*
X180420Y74655D01*
Y72665D01*
X181181Y70828D01*
X182588Y69421D01*
X184425Y68660D01*
X186415D01*
X188252Y69421D01*
X189659Y70828D01*
X190091Y71873D01*
X191590Y72171D01*
X197562Y66198D01*
Y60814D01*
X208689Y49688D01*
X209801Y50800D01*
X294640D01*
X309880Y66040D01*
X312420D01*
Y68580D01*
X317500Y73660D01*
X347980D01*
X359233Y62407D01*
Y54581D01*
X351716Y47064D01*
X340360Y58420D01*
X320040D01*
X302260Y40640D01*
X198120D01*
X157480Y81280D01*
X150155Y73955D01*
X149591Y74243D01*
X143752Y76140D01*
X137689Y77100D01*
X131551D01*
X125487Y76140D01*
X119649Y74243D01*
X114180Y71456D01*
X113315Y70828D01*
X94821D01*
Y72819D01*
X92184Y75456D01*
X92710Y76726D01*
X118483D01*
X124584Y82827D01*
X139060D01*
X146119Y89886D01*
Y104840D01*
X151024Y109746D01*
X166337D01*
X176028Y100055D01*
D02*
G37*
%LPC*%
G36*
X223520Y530246D02*
X220910Y529903D01*
X218477Y528895D01*
X216388Y527292D01*
X214785Y525203D01*
X213777Y522771D01*
X213434Y520160D01*
Y516160D01*
X213777Y513549D01*
X214785Y511117D01*
X216388Y509028D01*
X218477Y507425D01*
X220910Y506417D01*
X223520Y506074D01*
X226131Y506417D01*
X228563Y507425D01*
X230652Y509028D01*
X232255Y511117D01*
X233263Y513549D01*
X233606Y516160D01*
Y520160D01*
X233263Y522771D01*
X232255Y525203D01*
X230652Y527292D01*
X228563Y528895D01*
X226131Y529903D01*
X223520Y530246D01*
D02*
G37*
G36*
X118613Y533620D02*
X115067D01*
X111590Y532928D01*
X108314Y531571D01*
X105366Y529602D01*
X102858Y527094D01*
X100889Y524146D01*
X99532Y520870D01*
X98840Y517393D01*
Y513847D01*
X99532Y510370D01*
X100889Y507094D01*
X102858Y504146D01*
X105366Y501638D01*
X108314Y499669D01*
X111590Y498312D01*
X115067Y497620D01*
X118613D01*
X122090Y498312D01*
X125366Y499669D01*
X128314Y501638D01*
X130822Y504146D01*
X132791Y507094D01*
X134148Y510370D01*
X134840Y513847D01*
Y517393D01*
X134148Y520870D01*
X132791Y524146D01*
X130822Y527094D01*
X128314Y529602D01*
X125366Y531571D01*
X122090Y532928D01*
X118613Y533620D01*
D02*
G37*
G36*
X24860Y352986D02*
X20860D01*
X18249Y352643D01*
X15817Y351635D01*
X13728Y350032D01*
X12125Y347943D01*
X11117Y345510D01*
X10774Y342900D01*
X11117Y340289D01*
X12125Y337857D01*
X13728Y335768D01*
X15817Y334165D01*
X18249Y333157D01*
X20860Y332814D01*
X24860D01*
X27471Y333157D01*
X29903Y334165D01*
X31992Y335768D01*
X33595Y337857D01*
X34603Y340289D01*
X34946Y342900D01*
X34603Y345510D01*
X33595Y347943D01*
X31992Y350032D01*
X29903Y351635D01*
X27471Y352643D01*
X24860Y352986D01*
D02*
G37*
G36*
X659860Y294566D02*
X655860D01*
X653250Y294223D01*
X650817Y293215D01*
X648728Y291612D01*
X647125Y289523D01*
X646117Y287090D01*
X645774Y284480D01*
X646117Y281870D01*
X647125Y279437D01*
X648728Y277348D01*
X650817Y275745D01*
X653250Y274737D01*
X655860Y274394D01*
X659860D01*
X662470Y274737D01*
X664903Y275745D01*
X666992Y277348D01*
X668595Y279437D01*
X669603Y281870D01*
X669946Y284480D01*
X669603Y287090D01*
X668595Y289523D01*
X666992Y291612D01*
X664903Y293215D01*
X662470Y294223D01*
X659860Y294566D01*
D02*
G37*
G36*
X397235Y307260D02*
X395245D01*
X393408Y306499D01*
X392001Y305092D01*
X391240Y303255D01*
Y301265D01*
X392001Y299428D01*
X393408Y298021D01*
X395245Y297260D01*
X395609D01*
X409619Y283250D01*
Y279302D01*
X409020Y277855D01*
Y275865D01*
X409781Y274028D01*
X411188Y272621D01*
X413025Y271860D01*
X415015D01*
X416852Y272621D01*
X418259Y274028D01*
X419020Y275865D01*
Y277855D01*
X418259Y279692D01*
X417583Y280369D01*
Y284899D01*
X417279Y286423D01*
X416416Y287714D01*
X401240Y302891D01*
Y303255D01*
X400479Y305092D01*
X399072Y306499D01*
X397235Y307260D01*
D02*
G37*
G36*
X333735Y238680D02*
X331745D01*
X329908Y237919D01*
X328501Y236512D01*
X327740Y234675D01*
Y232685D01*
X328501Y230848D01*
X329012Y230337D01*
Y225929D01*
X328263Y225429D01*
X327742Y225265D01*
X325300Y225586D01*
X322690Y225243D01*
X320257Y224235D01*
X318168Y222632D01*
X316565Y220543D01*
X315557Y218111D01*
X315214Y215500D01*
Y211500D01*
X315557Y208890D01*
X316565Y206457D01*
X318168Y204368D01*
X320257Y202765D01*
X322690Y201757D01*
X325300Y201414D01*
X327910Y201757D01*
X330343Y202765D01*
X330704Y203042D01*
X331856Y202325D01*
X331692Y201500D01*
X332119Y199354D01*
X333335Y197535D01*
X381794Y149075D01*
X381143Y148035D01*
X378711Y149043D01*
X376100Y149386D01*
X373489Y149043D01*
X371057Y148035D01*
X368968Y146432D01*
X367365Y144343D01*
X366357Y141910D01*
X366014Y139300D01*
Y135300D01*
X366357Y132690D01*
X367365Y130257D01*
X368968Y128168D01*
X371057Y126565D01*
X373489Y125557D01*
X376100Y125214D01*
X378711Y125557D01*
X381143Y126565D01*
X383232Y128168D01*
X384835Y130257D01*
X385843Y132690D01*
X386186Y135300D01*
Y139300D01*
X385843Y141910D01*
X384835Y144343D01*
X385875Y144994D01*
X391432Y139438D01*
X391414Y139300D01*
Y135300D01*
X391757Y132690D01*
X392765Y130257D01*
X394368Y128168D01*
X396457Y126565D01*
X398890Y125557D01*
X401500Y125214D01*
X404110Y125557D01*
X406543Y126565D01*
X408632Y128168D01*
X410235Y130257D01*
X411243Y132690D01*
X411586Y135300D01*
Y139300D01*
X411243Y141910D01*
X410235Y144343D01*
X408632Y146432D01*
X406543Y148035D01*
X404110Y149043D01*
X401500Y149386D01*
X398890Y149043D01*
X398040Y148691D01*
X345006Y201725D01*
X345657Y202765D01*
X348089Y201757D01*
X350700Y201414D01*
X353311Y201757D01*
X355743Y202765D01*
X357832Y204368D01*
X359435Y206457D01*
X360443Y208890D01*
X360786Y211500D01*
Y215500D01*
X360443Y218111D01*
X359435Y220543D01*
X357832Y222632D01*
X355743Y224235D01*
X353311Y225243D01*
X350700Y225586D01*
X348089Y225243D01*
X345657Y224235D01*
X343568Y222632D01*
X342516Y221261D01*
X341158Y221578D01*
X341068Y222031D01*
X340184Y223354D01*
X340184Y223354D01*
X337169Y226369D01*
Y231307D01*
X337740Y232685D01*
Y234675D01*
X336979Y236512D01*
X335572Y237919D01*
X333735Y238680D01*
D02*
G37*
G36*
X503100Y225586D02*
X500490Y225243D01*
X498057Y224235D01*
X495968Y222632D01*
X494365Y220543D01*
X493357Y218111D01*
X493014Y215500D01*
Y211500D01*
X493357Y208890D01*
X494365Y206457D01*
X495968Y204368D01*
X498057Y202765D01*
X500490Y201757D01*
X503100Y201414D01*
X505710Y201757D01*
X508143Y202765D01*
X510232Y204368D01*
X511835Y206457D01*
X512843Y208890D01*
X513186Y211500D01*
Y215500D01*
X512843Y218111D01*
X511835Y220543D01*
X510232Y222632D01*
X508143Y224235D01*
X505710Y225243D01*
X503100Y225586D01*
D02*
G37*
G36*
X477700D02*
X475089Y225243D01*
X472657Y224235D01*
X470568Y222632D01*
X468965Y220543D01*
X467957Y218111D01*
X467614Y215500D01*
Y211500D01*
X467957Y208890D01*
X468965Y206457D01*
X470568Y204368D01*
X472657Y202765D01*
X475089Y201757D01*
X477700Y201414D01*
X480311Y201757D01*
X482743Y202765D01*
X484832Y204368D01*
X486435Y206457D01*
X487443Y208890D01*
X487786Y211500D01*
Y215500D01*
X487443Y218111D01*
X486435Y220543D01*
X484832Y222632D01*
X482743Y224235D01*
X480311Y225243D01*
X477700Y225586D01*
D02*
G37*
G36*
X452300D02*
X449689Y225243D01*
X447257Y224235D01*
X445168Y222632D01*
X443565Y220543D01*
X442557Y218111D01*
X442214Y215500D01*
Y211500D01*
X442557Y208890D01*
X443565Y206457D01*
X445168Y204368D01*
X447257Y202765D01*
X449689Y201757D01*
X452300Y201414D01*
X454911Y201757D01*
X457343Y202765D01*
X459432Y204368D01*
X461035Y206457D01*
X462043Y208890D01*
X462386Y211500D01*
Y215500D01*
X462043Y218111D01*
X461035Y220543D01*
X459432Y222632D01*
X457343Y224235D01*
X454911Y225243D01*
X452300Y225586D01*
D02*
G37*
G36*
X426900D02*
X424290Y225243D01*
X421857Y224235D01*
X419768Y222632D01*
X418165Y220543D01*
X417157Y218111D01*
X416814Y215500D01*
Y211500D01*
X417157Y208890D01*
X418165Y206457D01*
X419768Y204368D01*
X421857Y202765D01*
X424290Y201757D01*
X426900Y201414D01*
X429510Y201757D01*
X431943Y202765D01*
X434032Y204368D01*
X435635Y206457D01*
X436643Y208890D01*
X436986Y211500D01*
Y215500D01*
X436643Y218111D01*
X435635Y220543D01*
X434032Y222632D01*
X431943Y224235D01*
X429510Y225243D01*
X426900Y225586D01*
D02*
G37*
G36*
X376100D02*
X373489Y225243D01*
X371057Y224235D01*
X368968Y222632D01*
X367365Y220543D01*
X366357Y218111D01*
X366014Y215500D01*
Y211500D01*
X366357Y208890D01*
X367365Y206457D01*
X368968Y204368D01*
X371057Y202765D01*
X373489Y201757D01*
X376100Y201414D01*
X378711Y201757D01*
X381143Y202765D01*
X383232Y204368D01*
X384835Y206457D01*
X385843Y208890D01*
X386186Y211500D01*
Y215500D01*
X385843Y218111D01*
X384835Y220543D01*
X383232Y222632D01*
X381143Y224235D01*
X378711Y225243D01*
X376100Y225586D01*
D02*
G37*
G36*
X299900D02*
X297290Y225243D01*
X294857Y224235D01*
X292768Y222632D01*
X291165Y220543D01*
X290157Y218111D01*
X289814Y215500D01*
Y211500D01*
X290157Y208890D01*
X291165Y206457D01*
X292768Y204368D01*
X294857Y202765D01*
X297290Y201757D01*
X299900Y201414D01*
X302511Y201757D01*
X304943Y202765D01*
X307032Y204368D01*
X308635Y206457D01*
X309643Y208890D01*
X309986Y211500D01*
Y215500D01*
X309643Y218111D01*
X308635Y220543D01*
X307032Y222632D01*
X304943Y224235D01*
X302511Y225243D01*
X299900Y225586D01*
D02*
G37*
G36*
X452300Y149386D02*
X449689Y149043D01*
X447257Y148035D01*
X445168Y146432D01*
X443565Y144343D01*
X442557Y141910D01*
X442214Y139300D01*
Y135300D01*
X442557Y132690D01*
X443565Y130257D01*
X445168Y128168D01*
X447257Y126565D01*
X449689Y125557D01*
X452300Y125214D01*
X454911Y125557D01*
X457343Y126565D01*
X459432Y128168D01*
X461035Y130257D01*
X462043Y132690D01*
X462386Y135300D01*
Y139300D01*
X462043Y141910D01*
X461035Y144343D01*
X459432Y146432D01*
X457343Y148035D01*
X454911Y149043D01*
X452300Y149386D01*
D02*
G37*
G36*
X350700D02*
X348089Y149043D01*
X345657Y148035D01*
X343568Y146432D01*
X341965Y144343D01*
X340957Y141910D01*
X340614Y139300D01*
Y135300D01*
X340957Y132690D01*
X341965Y130257D01*
X343568Y128168D01*
X345657Y126565D01*
X348089Y125557D01*
X350700Y125214D01*
X353311Y125557D01*
X355743Y126565D01*
X357832Y128168D01*
X359435Y130257D01*
X360443Y132690D01*
X360786Y135300D01*
Y139300D01*
X360443Y141910D01*
X359435Y144343D01*
X357832Y146432D01*
X355743Y148035D01*
X353311Y149043D01*
X350700Y149386D01*
D02*
G37*
G36*
X325300D02*
X322690Y149043D01*
X320257Y148035D01*
X318168Y146432D01*
X316565Y144343D01*
X315557Y141910D01*
X315214Y139300D01*
Y135300D01*
X315557Y132690D01*
X316565Y130257D01*
X318168Y128168D01*
X320257Y126565D01*
X322690Y125557D01*
X325300Y125214D01*
X327910Y125557D01*
X330343Y126565D01*
X332432Y128168D01*
X334035Y130257D01*
X335043Y132690D01*
X335386Y135300D01*
Y139300D01*
X335043Y141910D01*
X334035Y144343D01*
X332432Y146432D01*
X330343Y148035D01*
X327910Y149043D01*
X325300Y149386D01*
D02*
G37*
G36*
X299900D02*
X297290Y149043D01*
X294857Y148035D01*
X292768Y146432D01*
X291165Y144343D01*
X290157Y141910D01*
X289814Y139300D01*
Y135300D01*
X290157Y132690D01*
X291165Y130257D01*
X292768Y128168D01*
X294857Y126565D01*
X297290Y125557D01*
X299900Y125214D01*
X302511Y125557D01*
X304943Y126565D01*
X307032Y128168D01*
X308635Y130257D01*
X309643Y132690D01*
X309986Y135300D01*
Y139300D01*
X309643Y141910D01*
X308635Y144343D01*
X307032Y146432D01*
X304943Y148035D01*
X302511Y149043D01*
X299900Y149386D01*
D02*
G37*
G36*
X507840Y37400D02*
X487840D01*
Y13400D01*
X507840D01*
Y37400D01*
D02*
G37*
G36*
X464820Y37486D02*
X462210Y37143D01*
X459777Y36135D01*
X457688Y34532D01*
X456085Y32443D01*
X455077Y30010D01*
X454734Y27400D01*
Y23400D01*
X455077Y20789D01*
X456085Y18357D01*
X457688Y16268D01*
X459777Y14665D01*
X462210Y13657D01*
X464820Y13314D01*
X467430Y13657D01*
X469863Y14665D01*
X471952Y16268D01*
X473555Y18357D01*
X474563Y20789D01*
X474906Y23400D01*
Y27400D01*
X474563Y30010D01*
X473555Y32443D01*
X471952Y34532D01*
X469863Y36135D01*
X467430Y37143D01*
X464820Y37486D01*
D02*
G37*
G36*
X388620D02*
X386009Y37143D01*
X383577Y36135D01*
X381488Y34532D01*
X379885Y32443D01*
X378877Y30010D01*
X378534Y27400D01*
Y23400D01*
X378877Y20789D01*
X379885Y18357D01*
X381488Y16268D01*
X383577Y14665D01*
X386009Y13657D01*
X388620Y13314D01*
X391231Y13657D01*
X393663Y14665D01*
X395752Y16268D01*
X397355Y18357D01*
X398363Y20789D01*
X398706Y23400D01*
Y27400D01*
X398363Y30010D01*
X397355Y32443D01*
X395752Y34532D01*
X393663Y36135D01*
X391231Y37143D01*
X388620Y37486D01*
D02*
G37*
G36*
X363220D02*
X360610Y37143D01*
X358177Y36135D01*
X356088Y34532D01*
X354485Y32443D01*
X353477Y30010D01*
X353134Y27400D01*
Y23400D01*
X353477Y20789D01*
X354485Y18357D01*
X356088Y16268D01*
X358177Y14665D01*
X360610Y13657D01*
X363220Y13314D01*
X365830Y13657D01*
X368263Y14665D01*
X370352Y16268D01*
X371955Y18357D01*
X372963Y20789D01*
X373306Y23400D01*
Y27400D01*
X372963Y30010D01*
X371955Y32443D01*
X370352Y34532D01*
X368263Y36135D01*
X365830Y37143D01*
X363220Y37486D01*
D02*
G37*
G36*
X312420D02*
X309809Y37143D01*
X307377Y36135D01*
X305288Y34532D01*
X303685Y32443D01*
X302677Y30010D01*
X302334Y27400D01*
Y23400D01*
X302677Y20789D01*
X303685Y18357D01*
X305288Y16268D01*
X307377Y14665D01*
X309809Y13657D01*
X312420Y13314D01*
X315030Y13657D01*
X317463Y14665D01*
X319552Y16268D01*
X321155Y18357D01*
X322163Y20789D01*
X322506Y23400D01*
Y27400D01*
X322163Y30010D01*
X321155Y32443D01*
X319552Y34532D01*
X317463Y36135D01*
X315030Y37143D01*
X312420Y37486D01*
D02*
G37*
%LPD*%
D69*
X396240Y302260D02*
X413601Y284899D01*
Y277279D02*
Y284899D01*
Y277279D02*
X414020Y276860D01*
X381616Y447300D02*
X510995D01*
X228600Y472440D02*
X246835Y454205D01*
X248205Y442675D02*
X376991D01*
X513855Y454205D02*
X515940Y452120D01*
X543560D01*
X246835Y454205D02*
X513855D01*
X376991Y442675D02*
X381616Y447300D01*
X89644Y189195D02*
X124041D01*
X85702Y192545D02*
X86294D01*
X89644Y189195D01*
X132080Y180340D02*
Y180933D01*
X126273Y186740D02*
Y186963D01*
X124041Y189195D02*
X126273Y186963D01*
Y186740D02*
X132080Y180933D01*
X68580Y210820D02*
X73320Y215560D01*
X83521Y215239D02*
X83940Y214820D01*
X76476Y215560D02*
X76797Y215239D01*
X73320Y215560D02*
X76476D01*
X76797Y215239D02*
X83521D01*
X611060Y278480D02*
Y314072D01*
X601715Y398452D02*
X604935Y401672D01*
X595905Y400858D02*
X599125Y404078D01*
X597015Y136179D02*
Y311684D01*
X584915Y431480D02*
X587302Y429093D01*
X591205Y201882D02*
Y309277D01*
X579105Y429073D02*
X581492Y426687D01*
X601715Y323417D02*
Y398452D01*
X605250Y267454D02*
Y311665D01*
X581492Y318990D02*
Y426687D01*
X595905Y321010D02*
X605250Y311665D01*
X595905Y321010D02*
Y400858D01*
X587302Y321397D02*
Y429093D01*
Y321397D02*
X597015Y311684D01*
X601715Y323417D02*
X611060Y314072D01*
X581492Y318990D02*
X591205Y309277D01*
X63500Y223520D02*
Y246380D01*
X55880Y215900D02*
X63500Y223520D01*
Y210820D02*
X68580D01*
X84980Y237995D02*
Y238403D01*
X57311Y266072D02*
X84980Y238403D01*
X432010Y464820D02*
X561648D01*
X422910Y473920D02*
X432010Y464820D01*
X167640Y462588D02*
X169872Y464820D01*
X167640Y337880D02*
Y462588D01*
X226060Y464820D02*
X248205Y442675D01*
X160020Y341373D02*
Y470208D01*
X169872Y464820D02*
X226060D01*
X162252Y472440D02*
X228600D01*
X160020Y470208D02*
X162252Y472440D01*
X208588Y457200D02*
X210820Y454968D01*
X176975Y454143D02*
X180032Y457200D01*
X210820Y428952D02*
Y454968D01*
X180032Y457200D02*
X208588D01*
X176975Y334455D02*
Y454143D01*
X561648Y464820D02*
X563880Y462588D01*
Y314247D02*
Y462588D01*
X299720Y516160D02*
X317435Y498445D01*
X198120Y516160D02*
X221645Y492635D01*
X337025Y504255D02*
X590880D01*
X317435Y498445D02*
X586732D01*
X221645Y492635D02*
X582093D01*
X172720Y516160D02*
X202055Y486825D01*
X576283D01*
X325120Y516160D02*
X337025Y504255D01*
X241300Y434340D02*
X548640D01*
X223520Y452120D02*
X241300Y434340D01*
X548640D02*
X553720Y439420D01*
X210820Y428952D02*
X213052Y426720D01*
X551180D02*
X555120Y422780D01*
X213052Y426720D02*
X551180D01*
X84980Y237995D02*
X103820Y219155D01*
X580930Y191607D02*
X591205Y201882D01*
X590880Y504255D02*
X604935Y490200D01*
X586732Y498445D02*
X599125Y486052D01*
X584231Y123395D02*
X597015Y136179D01*
X599125Y404078D02*
Y486052D01*
X605250Y267454D02*
X625529Y247175D01*
X604935Y401672D02*
Y490200D01*
X611060Y278480D02*
X630460Y259080D01*
X580930Y178326D02*
Y191607D01*
X579105Y429073D02*
Y484003D01*
X584915Y431480D02*
Y489813D01*
X582093Y492635D02*
X584915Y489813D01*
X565805Y123395D02*
X584231D01*
X579300Y176696D02*
X580930Y178326D01*
X579300Y137300D02*
Y176696D01*
X576283Y486825D02*
X579105Y484003D01*
X162560Y320040D02*
X176975Y334455D01*
X160020Y287020D02*
X177800Y269240D01*
X121920Y287020D02*
X160020D01*
X554337Y304704D02*
X563880Y314247D01*
X554337Y304225D02*
Y304704D01*
X64471Y382511D02*
X73687D01*
X93265Y402089D01*
Y415845D01*
X50260Y368300D02*
X64471Y382511D01*
X106000Y410860D02*
X112487Y404373D01*
X93265Y415845D02*
X111760Y434340D01*
X112487Y340225D02*
Y404373D01*
Y340225D02*
X114300Y338413D01*
Y337820D02*
Y338413D01*
X177800Y256540D02*
Y269240D01*
X104529Y219155D02*
X142240Y181444D01*
Y180340D02*
Y181444D01*
X103820Y219155D02*
X104529D01*
X625529Y247175D02*
X642365D01*
X139700Y320040D02*
X162560D01*
X130725Y329015D02*
X139700Y320040D01*
X117925Y325981D02*
X127000Y335056D01*
Y386080D01*
X48260Y368300D02*
X50260D01*
X59082Y355600D02*
X62165Y352518D01*
Y331535D02*
X73660Y320040D01*
X35560Y355600D02*
X59082D01*
X62165Y331535D02*
Y352518D01*
X162560Y332740D02*
Y332800D01*
X160020Y341373D02*
X160037Y341356D01*
X162560Y332800D02*
X167640Y337880D01*
X198120Y516160D02*
Y518160D01*
X553900Y135300D02*
X565805Y123395D01*
X553900Y135300D02*
Y137300D01*
X642365Y247175D02*
X655860Y233680D01*
X630460Y259080D02*
X632460D01*
X172720Y516160D02*
Y518160D01*
X299720Y516160D02*
Y518160D01*
X655860Y233680D02*
X657860D01*
X325120Y516160D02*
Y518160D01*
X325300Y137300D02*
Y139300D01*
X299900Y137300D02*
Y139300D01*
D70*
X130208Y78862D02*
G03*
X117865Y75520I4412J-40762D01*
G01*
X106680Y228600D02*
X160020D01*
X172720Y215900D01*
X149858Y139698D02*
Y219060D01*
X186040Y314347D02*
Y358499D01*
Y314347D02*
X186923Y313464D01*
X186040Y358499D02*
X188402Y360861D01*
Y387660D01*
X337300Y201500D02*
Y220471D01*
X267687Y350520D02*
X274688Y343518D01*
X276241D02*
X319420Y300340D01*
X274688Y343518D02*
X276241D01*
X584200Y218400D02*
Y307340D01*
X571500Y320040D02*
Y475177D01*
Y320040D02*
X584200Y307340D01*
X579300Y213500D02*
X584200Y218400D01*
X154125Y480920D02*
X565757D01*
X141485Y468280D02*
X154125Y480920D01*
X565757D02*
X571500Y475177D01*
X371380Y60960D02*
X426720D01*
X337820Y27400D02*
X371380Y60960D01*
X337820Y25400D02*
Y27400D01*
X130208Y78862D02*
X143232Y80272D01*
X99060Y73660D02*
X110540D01*
X117865Y75520D01*
X143232Y80272D02*
X157480Y94520D01*
X172720Y236220D02*
X186923Y250423D01*
Y313464D01*
X276860Y60960D02*
X281940D01*
X172720Y165100D02*
X276860Y60960D01*
X172720Y215900D02*
Y236220D01*
Y165100D02*
Y215900D01*
X299720Y45720D02*
X320040Y66040D01*
X203461Y45720D02*
X299720D01*
X171960Y77220D02*
X203461Y45720D01*
X320040Y66040D02*
X330200D01*
X33703Y226780D02*
X38820D01*
X33703D02*
X53375Y246452D01*
X17780Y226780D02*
X33703D01*
X319420Y300340D02*
X344757D01*
X183750Y95765D02*
X185420Y94095D01*
Y73660D02*
Y94095D01*
X171960Y77220D02*
Y80040D01*
X157480Y94520D02*
X171960Y80040D01*
X579300Y211500D02*
Y213500D01*
X639719Y343261D02*
X642620Y340360D01*
X127000Y462280D02*
X133000Y468280D01*
X141485D01*
X78631Y440720D02*
X86360Y432990D01*
X22860Y428720D02*
X34860Y440720D01*
X22860Y426720D02*
Y428720D01*
X34860Y440720D02*
X78631D01*
X86360Y411480D02*
Y432990D01*
X551180Y317500D02*
X553720Y320040D01*
X457200Y317500D02*
X551180D01*
X553720Y320040D02*
Y411480D01*
X441960Y332740D02*
X457200Y317500D01*
X157480Y94520D02*
Y96520D01*
X330200Y66040D02*
X340360D01*
X353060Y53340D01*
X592020Y471240D02*
X592220Y471440D01*
X592020Y434540D02*
Y471240D01*
X591820Y434340D02*
X592020Y434540D01*
X609600Y494759D02*
X610840Y493519D01*
Y414129D02*
Y493519D01*
Y414129D02*
X612140Y412830D01*
X609600Y494759D02*
Y495300D01*
X612140Y382970D02*
Y412830D01*
X123771Y113611D02*
X149858Y139698D01*
X112680Y110202D02*
X117030Y114552D01*
X112680Y102520D02*
Y110202D01*
X106680Y96520D02*
X112680Y102520D01*
X122830Y114552D02*
X123771Y113611D01*
X117030Y114552D02*
X122830D01*
X607178Y228522D02*
X613469Y222231D01*
X604220Y198420D02*
X604520Y198120D01*
X604220Y198420D02*
Y218740D01*
X607178Y228522D02*
Y228668D01*
X619760Y208280D02*
Y208426D01*
X603920Y219040D02*
X604220Y218740D01*
X613469Y214717D02*
X619760Y208426D01*
X613469Y214717D02*
Y222231D01*
X333091Y224680D02*
X337300Y220471D01*
X333091Y224680D02*
Y233330D01*
X332740Y233680D02*
X333091Y233330D01*
X489700Y142871D02*
X521715Y174885D01*
X534256D01*
X489700Y123940D02*
Y142871D01*
X534256Y174885D02*
X564870Y205500D01*
X573300D01*
X426720Y60960D02*
X489700Y123940D01*
X573300Y205500D02*
X579300Y211500D01*
D71*
X218236Y382419D02*
X218273Y382383D01*
D72*
X289836Y414020D02*
X345440D01*
X287020Y411745D02*
X287561D01*
X289836Y414020D01*
X337300Y201500D02*
X401500Y137300D01*
X83820Y93980D02*
Y127000D01*
X86360Y129540D01*
D73*
X83820Y93980D02*
X95780Y82020D01*
X116529D01*
X119930Y107282D02*
Y107552D01*
X119180Y84656D02*
Y106532D01*
X119930Y107282D01*
X116554Y82030D02*
X119180Y84656D01*
X116529Y82020D02*
X116554Y82030D01*
D77*
X22860Y368300D02*
D03*
Y342900D02*
D03*
X48260Y368300D02*
D03*
X127000Y436880D02*
D03*
Y386080D02*
D03*
Y411480D02*
D03*
X624840Y419100D02*
D03*
Y444500D02*
D03*
X657860Y259080D02*
D03*
Y284480D02*
D03*
X632460Y233680D02*
D03*
Y259080D02*
D03*
Y284480D02*
D03*
D78*
X48260Y342900D02*
D03*
X127000Y462280D02*
D03*
X624840Y469900D02*
D03*
X657860Y233680D02*
D03*
D79*
X325120Y518160D02*
D03*
X350520D02*
D03*
X172720D02*
D03*
X198120D02*
D03*
X223520D02*
D03*
X248920D02*
D03*
X274320D02*
D03*
X299720D02*
D03*
X375920D02*
D03*
X574040Y25400D02*
D03*
X548640D02*
D03*
X624840D02*
D03*
X599440D02*
D03*
X523240D02*
D03*
X48260Y401320D02*
D03*
X73660D02*
D03*
X22860Y426720D02*
D03*
X48260D02*
D03*
X73660D02*
D03*
X249100Y137300D02*
D03*
X274500D02*
D03*
X299900D02*
D03*
X325300D02*
D03*
X350700D02*
D03*
X376100D02*
D03*
X401500D02*
D03*
X426900D02*
D03*
X452300D02*
D03*
X477700D02*
D03*
X503100D02*
D03*
X528500D02*
D03*
X553900D02*
D03*
X579300D02*
D03*
X249100Y213500D02*
D03*
X274500D02*
D03*
X299900D02*
D03*
X325300D02*
D03*
X350700D02*
D03*
X376100D02*
D03*
X401500D02*
D03*
X426900D02*
D03*
X452300D02*
D03*
X477700D02*
D03*
X503100D02*
D03*
X528500D02*
D03*
X553900D02*
D03*
X535940Y518160D02*
D03*
X561340D02*
D03*
X434340D02*
D03*
X459740D02*
D03*
X485140D02*
D03*
X510540D02*
D03*
X586740D02*
D03*
X132080Y96520D02*
D03*
X157480D02*
D03*
X312420Y25400D02*
D03*
X388620D02*
D03*
X414020D02*
D03*
X439420D02*
D03*
X464820D02*
D03*
X337820D02*
D03*
X363220D02*
D03*
D80*
X401320Y518160D02*
D03*
X497840Y25400D02*
D03*
X22860Y401320D02*
D03*
X579300Y213500D02*
D03*
X612140Y518160D02*
D03*
X106680Y96520D02*
D03*
X287020Y25400D02*
D03*
D81*
X25400Y35560D02*
D03*
X71120D02*
D03*
D82*
X17780Y292780D02*
D03*
Y226780D02*
D03*
D83*
X116840Y515620D02*
D03*
D84*
X134620Y38100D02*
D03*
X642620Y340360D02*
D03*
X645160Y81280D02*
D03*
D85*
X149860Y218440D02*
D03*
X119040Y241640D02*
D03*
X414020Y276860D02*
D03*
X409900Y256920D02*
D03*
X219196Y382784D02*
D03*
X195319Y400100D02*
D03*
X210820Y414020D02*
D03*
X543560Y368300D02*
D03*
X510995Y447300D02*
D03*
X345440Y414020D02*
D03*
X228643Y411930D02*
D03*
X188402Y387660D02*
D03*
X267687Y350520D02*
D03*
X152400Y238760D02*
D03*
X106680Y228600D02*
D03*
X85702Y192545D02*
D03*
X86360Y129540D02*
D03*
X83940Y214820D02*
D03*
X114507Y133213D02*
D03*
X436880Y289560D02*
D03*
X193040Y355600D02*
D03*
X130370Y263631D02*
D03*
X422910Y473920D02*
D03*
X223520Y452120D02*
D03*
X363220Y363220D02*
D03*
X287020Y411745D02*
D03*
X281940Y60960D02*
D03*
X53375Y246452D02*
D03*
X57311Y266072D02*
D03*
X63500Y246380D02*
D03*
X183750Y95765D02*
D03*
X185420Y73660D02*
D03*
X622300Y401320D02*
D03*
X121920Y287020D02*
D03*
X152400Y297180D02*
D03*
X55880Y302260D02*
D03*
X76200Y287020D02*
D03*
X106680Y172720D02*
D03*
X73660Y121920D02*
D03*
X81280Y157480D02*
D03*
X53340Y114300D02*
D03*
X12700Y452120D02*
D03*
X86825Y442425D02*
D03*
X396240Y302260D02*
D03*
X344757Y300340D02*
D03*
X554337Y304225D02*
D03*
X441960Y332740D02*
D03*
X360680Y266700D02*
D03*
X99060Y73660D02*
D03*
X330200Y66040D02*
D03*
X353060Y53340D02*
D03*
X264160Y368300D02*
D03*
X406400Y353060D02*
D03*
X592220Y471440D02*
D03*
X609600Y495300D02*
D03*
X612140Y382970D02*
D03*
X553720Y439420D02*
D03*
Y411480D02*
D03*
X591820Y434340D02*
D03*
X555120Y422780D02*
D03*
X543560Y452120D02*
D03*
X86360Y411480D02*
D03*
X106000Y410860D02*
D03*
X177800Y256540D02*
D03*
X172720Y165100D02*
D03*
X142240Y180340D02*
D03*
X119930Y107552D02*
D03*
X55880Y215900D02*
D03*
X63500Y210820D02*
D03*
X132080Y180340D02*
D03*
X603920Y219040D02*
D03*
X607178Y228668D02*
D03*
X604520Y198120D02*
D03*
X619760Y208280D02*
D03*
X117925Y325981D02*
D03*
X130725Y329015D02*
D03*
X114300Y337820D02*
D03*
X111760Y434340D02*
D03*
X73660Y320040D02*
D03*
X35560Y355600D02*
D03*
X332740Y233680D02*
D03*
X162560Y332740D02*
D03*
X160037Y341356D02*
D03*
M02*
