M48
;Layer_Color=9474304
;FILE_FORMAT=4:4
METRIC,LZ
;TYPE=PLATED
T1F00S00C0.3000
T3F00S00C1.1000
T4F00S00C1.5000
T5F00S00C3.2000
;TYPE=NON_PLATED
T6F00S00C3.2000
%
T01
X0005334Y001143
X0007366Y0012192
X0008636Y0012954
X00114507Y00133213
X0011993Y00107552
X0009906Y0007366
X0018542
X0018375Y00095765
X0028194Y0006096
X003302Y0006604
X0035306Y0005334
X0060452Y0019812
X0060392Y0021904
X00607178Y00228668
X0061976Y0020828
X00554337Y00304225
X0054356Y003683
X0055372Y0041148
X0055512Y0042278
X0055372Y0043942
X0054356Y0045212
X0059182Y0043434
X0059222Y0047144
X006096Y004953
X006223Y0040132
X0061214Y0038297
X00510995Y004473
X0042291Y0047392
X0034544Y0041402
X0028702Y00411745
X00228643Y0041193
X0021082Y0041402
X00195319Y004001
X00188402Y0038766
X00219196Y00382784
X0019304Y003556
X00160037Y00341356
X0016256Y0033274
X001524Y0029718
Y0023876
X0014986Y0021844
X001778Y0025654
X0017272Y001651
X0033274Y0023368
X0036068Y002667
X00344757Y0030034
X0039624Y0030226
X0041402Y0027686
X004099Y0025692
X0043688Y0028956
X0044196Y0033274
X004064Y0035306
X0036322Y0036322
X0026416Y003683
X00267687Y0035052
X0022352Y0045212
X0011176Y0043434
X00106Y0041086
X0008636Y0041148
X00086825Y00442425
X000127Y0045212
X0003556Y003556
X0005588Y0030226
X000762Y0028702
X0007366Y0032004
X00117925Y00325981
X001143Y0033782
X00130725Y00329015
X0012192Y0028702
X0013037Y00263631
X0011904Y0024164
X0010668Y002286
X0008394Y0021482
X00085702Y00192545
X0008128Y0015748
X0010668Y0017272
X0013208Y0018034
X0014224
X000635Y0021082
X0005588Y002159
X00053375Y00246452
X000635Y0024638
X00057311Y00266072
T03
X0010668Y0009652
X0013208
X0015748
X002491Y001373
X002745
X002999
X003253
X003507
X003761
X004015
X004269
X004523
X004777
X005031
X005285
X0052324Y000254
X0049784
X0046482
X0043942
X0041402
X0038862
X0036322
X0033782
X0031242
X0028702
X0054864
X0057404
X0059944
X0062484
X005793Y001373
X005539
Y002135
X005793
X0063246Y0023368
X0065786
Y0025908
Y0028448
X0063246
Y0025908
X0062484Y004191
Y004445
Y004699
X0061214Y0051816
X0058674
X0056134
X0053594
X0051054
X0048514
X0045974
X0043434
X0040132
X0037592
X0035052
X0032512
X0029972
X0027432
X0024892
X0022352
X0019812
X0017272
X002491Y002135
X002745
X002999
X003253
X003507
X003761
X004015
X004269
X004523
X004777
X005031
X005285
X00127Y0038608
Y0041148
Y0043688
Y0046228
X0007366Y0042672
Y0040132
X0004826
X0002286
Y0042672
X0004826
Y003683
X0002286
Y003429
X0004826
T04
X000254Y0003556
X0007112
T05
X0013462Y000381
X0064516Y0008128
X0064262Y0034036
T06
X0011684Y0051562
M30
